<?xml version="1.0" encoding="UTF-8" standalone="no"?>
<!-- Created with Inkscape (http://www.inkscape.org/) -->

<svg
   xmlns:dc="http://purl.org/dc/elements/1.1/"
   xmlns:cc="http://creativecommons.org/ns#"
   xmlns:rdf="http://www.w3.org/1999/02/22-rdf-syntax-ns#"
   xmlns:svg="http://www.w3.org/2000/svg"
   xmlns="http://www.w3.org/2000/svg"
   xmlns:sodipodi="http://sodipodi.sourceforge.net/DTD/sodipodi-0.dtd"
   xmlns:inkscape="http://www.inkscape.org/namespaces/inkscape"
   id="svg2"
   version="1.1"
   inkscape:version="0.48.4 r9939"
   width="266"
   height="265"
   sodipodi:docname="baignade.svg">
  <sodipodi:namedview
     pagecolor="#ffffff"
     bordercolor="#666666"
     borderopacity="1"
     objecttolerance="10"
     gridtolerance="10"
     guidetolerance="10"
     inkscape:pageopacity="0"
     inkscape:pageshadow="2"
     inkscape:window-width="1551"
     inkscape:window-height="848"
     id="namedview4"
     showgrid="false"
     inkscape:zoom="2.5189012"
     inkscape:cx="58.081254"
     inkscape:cy="132.5"
     inkscape:window-x="49"
     inkscape:window-y="24"
     inkscape:window-maximized="0"
     inkscape:current-layer="svg2" />
  <metadata
     id="metadata8">
    <rdf:RDF>
      <cc:Work
         rdf:about="">
        <dc:format>image/svg+xml</dc:format>
        <dc:type
           rdf:resource="http://purl.org/dc/dcmitype/StillImage" />
        <dc:title />
      </cc:Work>
    </rdf:RDF>
  </metadata>
  <defs
     id="defs6" />
  <path
     style="fill:#fffff;stroke:none;stroke-width:1px;stroke-linecap:butt;stroke-linejoin:miter;stroke-opacity:1;fill-opacity:0.39215687"
     d="m 18.261931,243.95908 -4.763982,11.11596 43.669836,-11.11596 38.905852,-0.794 60.343763,8.33697 47.24283,-0.79399 c 0,0 36.12686,-11.11596 36.12686,-9.13097 0,1.98499 13.49795,-40.49385 13.49795,-40.49385 l -2.38199,-57.56478 -15.08594,-84.957681 12.30695,-39.69985 -19.45293,1.984992 -14.29194,185.398299 z"
     id="path5340"
     inkscape:connector-curvature="0"
     sodipodi:nodetypes="ccccccsccccccc" />
  <path
     id="path2987"
     d="M 200.46875 6.5625 L 152.0625 16.46875 L 71.84375 7.75 L 9.9375 9.34375 L 16.6875 59.75 L 14.28125 108.1875 L 15.09375 141.125 L 25 196.71875 L 7.15625 251.90625 L 56.375 240.78125 L 95.28125 240.375 L 157.59375 247.125 L 201.28125 247.125 L 237.8125 235.625 L 248.53125 198.3125 L 246.9375 147.09375 L 231.84375 58.96875 L 246.125 11.3125 L 200.46875 6.5625 z M 181.4375 72.5 C 189.7871 72.237192 191.80409 79.61496 192.34375 81.59375 C 192.93925 83.777242 194.52796 92.119756 185 93.90625 C 175.47203 95.692743 146.28125 99.84375 146.28125 99.84375 L 181.625 161.6875 L 74.03125 161.6875 L 131.8125 124.0625 C 131.8125 124.0625 119.31024 101.62973 116.53125 96.46875 C 113.75226 91.307769 116.10752 83.983245 122.0625 82.59375 C 128.01748 81.204255 167.67922 75.079812 178.65625 72.84375 C 179.66115 72.639048 180.57375 72.527187 181.4375 72.5 z M 187.96875 106.59375 C 199.2832 106.59375 205.0682 115.01436 206.25 124.46875 C 207.441 133.99671 201.06795 144.5075 188.5625 145.5 C 177.47432 146.38002 168.522 136.38096 168.125 127.25 C 167.728 118.11903 174.2723 106.59375 187.96875 106.59375 z M 70.75 165.84375 C 78.094472 165.84375 81.878285 170.52026 91.40625 170.71875 C 100.93421 170.91726 102.02703 165.84375 110.5625 165.84375 C 119.09796 165.84375 120.98303 170.71875 130.3125 170.71875 C 139.64196 170.71875 141.51604 166.24075 150.25 165.84375 C 158.98397 165.44675 161.36903 170.71875 170.5 170.71875 C 179.63096 170.71875 183.60978 166.04225 192.34375 165.84375 C 201.07772 165.64525 202.85229 170.91725 210.59375 170.71875 L 210.59375 184 C 202.65378 184 202.07021 179.15625 192.34375 179.15625 C 182.61729 179.15625 180.62347 184 170.5 184 C 160.37654 184 159.18247 179.35475 150.25 179.15625 C 141.31753 178.95775 142.02396 184.1985 130.3125 184 C 118.60105 183.8015 120.28897 179.15625 110.5625 179.15625 C 100.83604 179.15625 102.9192 183.8015 91.40625 184 C 79.893293 184.1985 80.674963 179.15625 70.75 179.15625 C 60.825038 179.15625 60.950457 185.38949 49.4375 184 L 49.4375 170.71875 C 60.553459 170.91725 63.405527 165.84375 70.75 165.84375 z "
     style="fill:#1b4673;stroke:none;stroke-width:1px;stroke-linecap:butt;stroke-linejoin:miter;stroke-opacity:1;fill-opacity:1" />
  <path
     style="fill:none;stroke:#fffff;stroke-width:1px;stroke-linecap:butt;stroke-linejoin:miter;stroke-opacity:1"
     d="M 584.9773,87.839419 549.64443,26.006898 c 0,0 29.17939,-4.168484 38.70736,-5.954977 9.52796,-1.786494 7.93996,-10.1234621 7.34446,-12.3069541 -0.59549,-2.183492 -2.97748,-10.917459 -13.69644,-8.73396701 -10.97703,2.23606201 -50.61731,8.33696801 -56.57229,9.72646301 -5.95498,1.3894951 -8.33697,8.7339671 -5.55798,13.8949481 2.77899,5.160978 15.28445,27.591398 15.28445,27.591398 l -57.76329,37.61561 z"
     id="path2988"
     inkscape:connector-curvature="0"
     sodipodi:nodetypes="ccsssssccc" />
  <path
     style="fill:none;stroke:#fffff;stroke-width:1px;stroke-linecap:butt;stroke-linejoin:miter;stroke-opacity:1"
     d="m 591.32928,32.755869 c 11.31445,0 17.08013,8.41055 18.26193,17.86494 1.191,9.52796 -5.16099,20.04842 -17.66644,21.04092 -11.08818,0.88002 -20.04842,-9.13097 -20.44542,-18.26193 -0.397,-9.13097 6.15348,-20.64393 19.84993,-20.64393 z"
     id="path2990"
     inkscape:connector-curvature="0"
     sodipodi:nodetypes="sssss" />
  <path
     style="fill:none;stroke:#fffff;stroke-width:1px;stroke-linecap:butt;stroke-linejoin:miter;stroke-opacity:1"
     d="m 613.95819,96.871129 c -7.74146,0.1985 -9.52796,-5.06173 -18.26193,-4.86323 -8.73397,0.1985 -12.70396,4.86323 -21.83492,4.86323 -9.13097,0 -11.51295,-5.26023 -20.24692,-4.86323 -8.73396,0.397 -10.61972,4.86323 -19.94918,4.86323 -9.32947,0 -11.21521,-4.86323 -19.75067,-4.86323 -8.53547,0 -9.62722,5.06174 -19.15519,4.86323 -9.52796,-0.19849 -13.29945,-4.86323 -20.64392,-4.86323 -7.34447,0 -10.22271,5.06173 -21.33867,4.86323 l 0,13.299451 c 11.51296,1.38949 11.41371,-4.86323 21.33867,-4.86323 9.92496,0 9.13097,5.06173 20.64392,4.86323 11.51296,-0.1985 9.42873,-4.86323 19.15519,-4.86323 9.72647,0 8.03922,4.66473 19.75067,4.86323 11.71146,0.1985 11.01671,-5.06173 19.94918,-4.86323 8.93247,0.1985 10.12346,4.86323 20.24692,4.86323 10.12347,0 12.10846,-4.86323 21.83492,-4.86323 9.72646,0 10.32196,4.86323 18.26193,4.86323 z"
     id="path2992"
     inkscape:connector-curvature="0"
     sodipodi:nodetypes="ccccccccccccccccccc" />
  <path
     style="fill:none;stroke:#fffff;stroke-width:1px;stroke-linecap:butt;stroke-linejoin:miter;stroke-opacity:1"
     d="m 413.27544,-64.508761 6.74897,50.418811 -2.38199,48.433819 0.794,32.95088 9.92496,55.579791 -17.86493,55.18279 49.22781,-11.11596 38.90586,-0.397 62.32877,6.74898 43.66983,0 36.52387,-11.51296 10.71896,-37.31786 -1.588,-51.212811 -15.08594,-88.133666 14.29195,-47.639821 -45.65483,-4.763982 -48.43382,9.924963 -80.1937,-8.733968 z"
     id="path2994"
     inkscape:connector-curvature="0" />
  <path
     style="fill:#fffff;fill-opacity:0;stroke:#fffff;stroke-width:0.39699849;stroke-opacity:1"
     d="m 75.361604,161.10787 c 0.430695,-0.2925 13.109885,-8.53964 28.175976,-18.32697 15.0661,-9.78734 27.64421,-18.02359 27.95136,-18.30276 0.47173,-0.42876 -0.6457,-2.6848 -7.19414,-14.52465 -4.26393,-7.70938 -7.95424,-14.624321 -8.20069,-15.366538 -1.38933,-4.184309 0.64794,-9.306718 4.39467,-11.049711 1.9929,-0.927105 0.0791,-0.567899 31.48262,-5.908968 32.14983,-5.467996 30.26607,-5.219273 33.0007,-4.357258 3.98313,1.255573 6.7079,4.983709 7.49924,10.260764 0.65467,4.365613 -1.6307,8.260391 -5.61555,9.570137 -2.21708,0.728715 -11.47841,2.278698 -28.4406,4.759843 -6.49997,0.950784 -11.92324,1.8338 -12.0517,1.962256 -0.12845,0.128457 7.64614,14.021875 17.27687,30.874275 9.63074,16.85239 17.51043,30.70837 17.51043,30.79106 0,0.0827 -23.97876,0.15034 -53.28614,0.15034 -44.654697,0 -53.159283,-0.0861 -52.503046,-0.53182 z"
     id="path2989"
     inkscape:connector-curvature="0" />
  <path
     style="fill:#fffff;fill-opacity:0.97254902;stroke:#fffff;stroke-width:0.39699848999999998;stroke-opacity:1"
     d="m 78.480208,160.88532 -1.634463,-0.23813 11.292273,-7.32848 c 37.364962,-24.24921 43.586722,-28.45303 43.577782,-29.44399 -0.005,-0.52874 -3.46086,-7.43376 -7.68019,-15.34449 -4.61124,-8.645496 -7.7515,-14.979492 -7.87203,-15.878064 -0.44595,-3.324877 1.70278,-7.316153 4.70701,-8.743257 1.64048,-0.779277 13.48776,-2.937334 45.19426,-8.232418 15.15015,-2.530122 16.61061,-2.67612 18.91512,-1.890895 3.9754,1.354555 7.01042,6.112683 7.03871,11.034884 0.0277,4.82564 -2.43141,7.335339 -8.38362,8.555951 -2.78094,0.570284 -29.97964,4.934013 -36.34971,5.831907 -1.17397,0.165477 -1.4561,0.353469 -1.26762,0.844642 0.38252,0.99684 9.40412,17.07901 22.39206,39.91673 6.57085,11.55404 11.947,21.06712 11.947,21.14017 0,0.24016 -100.202821,0.0193 -101.876582,-0.22456 l 0,0 z"
     id="path2991"
     inkscape:connector-curvature="0" />
  <path
     style="fill:#fffff;fill-opacity:0.97254902;stroke:#fffff;stroke-width:0.39699849;stroke-opacity:1"
     d="m 183.38492,144.94834 c -2.53756,-0.63941 -6.77527,-3.0836 -8.78506,-5.06696 -3.77409,-3.72449 -5.72003,-7.72285 -6.04815,-12.42727 -0.6407,-9.18616 5.46738,-17.66514 14.40207,-19.99233 4.52779,-1.17934 10.0195,-0.51931 13.94798,1.67636 2.31892,1.29607 5.59039,4.98759 6.93199,7.82204 5.29764,11.19254 0.71629,23.44551 -10.17751,27.22006 -2.72898,0.94556 -8.00213,1.33989 -10.27132,0.7681 z"
     id="path3761"
     inkscape:connector-curvature="0" />
  <path
     style="fill:#fffff;fill-opacity:0.97254902;stroke:#fffff;stroke-width:0.39699849;stroke-opacity:1"
     d="m 49.744285,177.36969 0,-6.59903 1.930807,0 c 3.030993,0 5.581319,-0.61914 10.848204,-2.63359 4.42095,-1.6909 5.209496,-1.87025 8.26191,-1.87919 2.926095,-0.009 3.928383,0.19062 7.542972,1.49906 6.690372,2.42185 9.299919,3.01394 13.2726,3.0115 4.210416,-0.003 5.566352,-0.32223 10.254972,-2.41743 6.69418,-2.99142 10.86796,-2.98034 17.98246,0.0477 4.62675,1.96924 6.32217,2.35021 10.51261,2.3622 3.88019,0.0111 6.43416,-0.56923 11.37876,-2.5856 2.20972,-0.90111 4.7509,-1.58827 6.91745,-1.87054 3.07462,-0.40058 3.74404,-0.3622 6.55047,0.37557 1.71923,0.45197 4.73372,1.51251 6.69886,2.35677 3.54053,1.52106 3.61987,1.53497 8.73397,1.53154 l 5.16098,-0.003 6.19755,-2.07287 c 9.72148,-3.25151 12.59641,-3.22916 19.97982,0.15527 2.68897,1.23257 4.70162,1.88345 6.26138,2.02489 l 2.29862,0.20843 0,6.49534 c 0,3.84137 -0.15423,6.49532 -0.37746,6.49532 -1.41997,0 -5.0048,-1.10461 -7.26499,-2.2386 -3.64556,-1.82906 -6.57671,-2.52539 -10.63049,-2.52539 -3.73432,0 -6.30037,0.59373 -13.08994,3.02874 -3.92077,1.40614 -4.4398,1.49415 -8.73397,1.48102 -4.00078,-0.0122 -4.93377,-0.15104 -7.54297,-1.1222 -9.56767,-3.56113 -9.00387,-3.42462 -13.49795,-3.2682 -3.95013,0.13749 -4.34524,0.23181 -7.54297,1.80058 -4.44665,2.18147 -8.31236,2.99591 -12.69627,2.67489 -4.3011,-0.31497 -5.79243,-0.72713 -9.93265,-2.74508 l -3.37448,-1.64474 -5.16098,-0.003 -5.16099,-0.003 -3.82721,1.87754 c -3.201747,1.5707 -4.441256,1.95301 -7.584436,2.33928 -4.571183,0.56177 -8.161003,0.1239 -11.846584,-1.44499 -5.824632,-2.47945 -7.58589,-2.94954 -11.082135,-2.95786 -4.114819,-0.01 -5.440829,0.32786 -10.520327,2.67897 -3.558971,1.64731 -4.329398,1.85468 -7.443722,2.00358 l -3.473871,0.16609 0,-6.59904 z"
     id="path3763"
     inkscape:connector-curvature="0" />
  <path
     style="fill:#ffffff;fill-opacity:0;stroke:#fffff;stroke-width:0.39699848999999998;stroke-opacity:1"
     d="m 83.177534,160.85167 c -2.507728,-0.0622 -4.713962,-0.26758 -4.902741,-0.45636 -0.19298,-0.19298 0.499563,-0.82848 1.582018,-1.45172 1.05889,-0.60966 3.443773,-2.1157 5.299741,-3.34675 4.021851,-2.66767 11.276761,-7.42708 20.246928,-13.28252 3.60276,-2.35176 8.60494,-5.64888 11.11595,-7.32691 2.51102,-1.67804 5.36941,-3.52005 6.35198,-4.09336 0.98257,-0.57331 2.27778,-1.50776 2.87824,-2.07657 0.60046,-0.56881 1.09769,-0.89298 1.10495,-0.72038 0.007,0.1726 0.38471,-0.13281 0.83875,-0.67868 0.45405,-0.54587 0.97681,-0.9925 1.16168,-0.9925 0.18488,0 0.71787,-0.26797 1.18443,-0.59549 2.29526,-1.61127 2.17432,-1.4095 1.58018,-2.63625 -0.30241,-0.62438 -0.51865,-1.26923 -0.48054,-1.43299 0.0381,-0.16376 -0.13915,-0.29775 -0.39389,-0.29775 -0.25474,0 -0.34684,-0.11632 -0.20467,-0.25849 0.14218,-0.14218 -0.0147,-0.45827 -0.34861,-0.70242 -0.3339,-0.24416 -0.63711,-0.84243 -0.67381,-1.3295 -0.0367,-0.48707 -0.20734,-0.88558 -0.37922,-0.88558 -0.17188,0 -0.31251,-0.2636 -0.31251,-0.58578 0,-0.32218 -0.82921,-2.15334 -1.84269,-4.06923 -1.01347,-1.9159 -3.60781,-6.95354 -5.7652,-11.19476 -2.15739,-4.24122 -4.06866,-7.903531 -4.24727,-8.138471 -0.5085,-0.66884 -0.56253,-4.579367 -0.0714,-5.171075 0.24283,-0.292596 0.39058,-0.688399 0.32833,-0.879563 -0.30206,-0.92763 3.48311,-4.392181 4.55155,-4.166015 0.16377,0.03467 0.29775,-0.126166 0.29775,-0.357402 0,-0.231235 0.14385,-0.331525 0.31967,-0.222865 0.17581,0.108659 1.02439,0.02835 1.88574,-0.178476 0.86134,-0.206821 2.28068,-0.483347 3.15407,-0.614502 0.8734,-0.131155 1.78308,-0.396046 2.02152,-0.588647 0.23844,-0.192601 0.54337,-0.240339 0.67763,-0.106084 0.13425,0.134255 0.56444,0.106142 0.95597,-0.06247 0.39152,-0.168615 1.09676,-0.269461 1.56719,-0.224102 0.47044,0.04536 0.97406,-0.109642 1.11918,-0.344446 0.14512,-0.234804 0.4268,-0.326208 0.62596,-0.20312 0.36588,0.226123 4.83475,-0.437407 5.935,-0.881219 0.32753,-0.132114 1.04212,-0.280064 1.588,-0.328779 0.54587,-0.04872 1.08182,-0.131583 1.19099,-0.184152 0.10918,-0.05257 0.5834,-0.06525 1.05383,-0.02819 0.47043,0.03706 0.96744,-0.114009 1.10446,-0.335716 0.13702,-0.221706 0.51138,-0.302466 0.83192,-0.179467 0.32053,0.123 0.89542,0.09695 1.27753,-0.05788 0.38211,-0.154834 1.57988,-0.356541 2.66172,-0.448238 1.08184,-0.0917 2.06441,-0.296765 2.1835,-0.455706 0.11908,-0.158941 0.57381,-0.27725 1.0105,-0.262909 0.4367,0.01434 0.97265,-0.06899 1.191,-0.185178 0.21835,-0.116188 0.84362,-0.238673 1.38949,-0.272187 0.54588,-0.03351 1.08183,-0.103947 1.191,-0.156516 0.10917,-0.05257 0.5834,-0.06525 1.05383,-0.02819 0.47043,0.03706 0.96744,-0.114009 1.10446,-0.335716 0.13702,-0.221706 0.51138,-0.302466 0.83192,-0.179467 0.32052,0.123 0.89541,0.09695 1.27752,-0.05788 0.38212,-0.154834 1.588,-0.356756 2.67974,-0.448715 1.09175,-0.09196 2.04492,-0.342803 2.11815,-0.557429 0.0732,-0.214626 0.30367,-0.284851 0.51206,-0.156054 0.38124,0.235617 5.58933,-0.474167 6.69926,-0.913007 0.32752,-0.129496 0.8372,-0.195215 1.13262,-0.146043 0.29542,0.04917 0.83137,-0.03019 1.191,-0.176352 1.185,-0.481627 7.49692,-0.817302 8.79234,-0.467587 2.46178,0.664592 4.4486,2.491017 5.98426,5.501154 0.99583,1.951983 1.0974,2.427707 1.2009,5.624789 0.0653,2.017102 -0.0928,2.747654 -0.84177,3.890247 -1.62257,2.475266 -5.05537,4.061493 -9.91638,4.582162 -1.20092,0.128633 -2.37858,0.389255 -2.61702,0.579162 -0.23843,0.189907 -0.53252,0.246286 -0.65352,0.125287 -0.19183,-0.191824 -2.67483,0.162846 -5.86043,0.837099 -0.54587,0.115537 -1.48378,0.231341 -2.08424,0.257342 -0.60046,0.026 -1.09174,0.21785 -1.09174,0.426332 0,0.208482 -0.2879,0.26858 -0.63978,0.133553 -0.35187,-0.135027 -2.27235,0.04859 -4.26773,0.408029 -1.99538,0.359444 -3.9406,0.64056 -4.32271,0.624702 -0.38211,-0.01586 -0.69475,0.121989 -0.69475,0.306326 0,0.184338 -0.35463,0.242421 -0.78806,0.129076 -0.43344,-0.113346 -1.10337,-0.06826 -1.48875,0.100193 -0.38537,0.168453 -0.84993,0.272824 -1.03237,0.231936 -0.18243,-0.04089 -1.43297,0.127634 -2.77899,0.374492 -1.34601,0.246858 -3.15935,0.532868 -4.02963,0.635577 -0.87029,0.10271 -1.69419,0.367708 -1.83089,0.588886 -0.13669,0.221177 -0.36255,0.386882 -0.50189,0.368233 -0.13935,-0.01865 -0.34051,-0.03391 -0.44703,-0.03391 -0.17756,0 0.62973,1.563228 3.28035,6.351978 0.54386,0.98257 1.42097,2.57262 1.94914,3.53343 1.04348,1.89827 2.27947,4.10205 3.69602,6.59003 0.49728,0.8734 1.52769,2.74922 2.28982,4.16849 0.76212,1.41927 1.5227,2.75914 1.69018,2.97748 0.16747,0.21835 0.68083,1.06694 1.1408,1.88575 0.45996,0.81881 1.21904,2.15868 1.68684,2.97749 0.4678,0.81881 1.24166,2.20334 1.71968,3.07673 0.47803,0.8734 1.25651,2.25793 1.72995,3.07674 1.74977,3.02619 2.5896,4.52728 3.9425,7.04673 0.76213,1.41927 1.52271,2.75914 1.69018,2.97749 0.30567,0.39852 1.3406,2.20342 2.95934,5.16098 0.47802,0.87339 1.2565,2.25792 1.72994,3.07673 3.35258,5.79821 4.47361,7.93324 4.27156,8.13529 -0.1889,0.1889 -89.257336,0.3626 -96.302426,0.18781 l 0,0 z"
     id="path2993"
     inkscape:connector-curvature="0" />
  <path
     style="fill:#ffffff;fill-opacity:0;stroke:#fffff;stroke-width:0.39699849;stroke-opacity:1"
     d="m 99.051499,160.36929 -20.445423,-0.19849 2.777602,-1.7865 c 14.41941,-9.27425 43.440292,-28.44679 46.980812,-31.03769 3.85186,-2.81874 4.01922,-3.02636 3.55539,-4.41057 -0.23481,-0.70075 -0.64386,-1.54207 -0.90899,-1.8696 -0.26513,-0.32752 -2.19643,-4.07916 -4.29176,-8.33697 -2.09534,-4.2578 -5.15331,-10.33188 -6.79551,-13.497944 -2.27176,-4.379856 -2.98835,-6.145804 -2.99649,-7.384481 -0.0216,-3.291426 1.61325,-6.004183 4.35629,-7.228377 1.42492,-0.635933 7.04628,-1.982324 9.52796,-2.282076 0.76422,-0.09231 2.01477,-0.333015 2.77899,-0.534906 0.76422,-0.201891 2.81869,-0.589538 4.56548,-0.861439 1.7468,-0.2719 4.06924,-0.645224 5.16098,-0.829607 1.09175,-0.184384 2.69959,-0.419296 3.57299,-0.522026 0.8734,-0.10273 2.83854,-0.458581 4.36698,-0.790779 2.91675,-0.633935 6.75583,-1.27406 9.66817,-1.612058 0.95051,-0.110314 2.46903,-0.392234 3.37449,-0.626489 0.90546,-0.234255 2.89683,-0.579096 4.42528,-0.766312 1.52844,-0.187216 4.2975,-0.617341 6.15347,-0.955832 1.85597,-0.338491 4.82816,-0.615683 6.60486,-0.615981 2.98601,-5.02e-4 3.37578,0.09706 5.15255,1.289702 2.85018,1.913153 4.51953,5.313598 4.51953,9.206193 0,2.34383 -0.16937,3.135425 -0.90417,4.225788 -1.69076,2.508922 -5.52679,3.879226 -14.38027,5.136917 -1.52845,0.217124 -3.76156,0.571582 -4.96248,0.787684 -1.20092,0.216102 -4.14864,0.661404 -6.55048,0.98956 -2.40184,0.328156 -4.8136,0.709781 -5.35948,0.848056 -0.54587,0.138274 -1.34979,0.286085 -1.78649,0.328468 -4.231,0.410632 -9.93895,1.616477 -10.55156,2.229097 -0.4934,0.493401 -0.77245,0.567948 -0.90524,0.241834 -0.13802,-0.338941 -0.20078,-0.328259 -0.22331,0.03801 -0.0172,0.280195 0.39761,1.352088 0.9219,2.381988 1.46679,2.88134 15.46486,27.82122 29.34913,52.29033 1.85812,3.27467 3.34815,5.97474 3.3112,6.00016 -0.2768,0.19039 -63.74679,0.31275 -80.062401,0.15434 z"
     id="path2995"
     inkscape:connector-curvature="0" />
  <path
     style="fill:#ffffff;fill-opacity:0;stroke:#fffff;stroke-width:0.39699849;stroke-opacity:1"
     d="m 93.944618,150.51869 c 31.918952,-20.90205 38.454752,-25.42246 38.454752,-26.59681 0,-0.36913 -3.39433,-7.4033 -7.54297,-15.63148 -8.26394,-16.39028 -8.35433,-16.660115 -6.7149,-20.046719 1.00603,-2.078171 2.27501,-3.031257 5.13568,-3.857233 3.22051,-0.929873 11.04999,-2.478329 20.23815,-4.002546 4.47616,-0.742548 13.49795,-2.262122 20.04843,-3.376831 13.03621,-2.218402 19.62268,-2.826571 21.62581,-1.996844 1.7029,0.705362 4.19434,3.655625 4.94327,5.853611 0.79736,2.340118 0.8016,5.767748 0.009,7.437609 -0.69708,1.468979 -3.14957,2.96025 -6.47324,3.93614 -1.16979,0.343469 -6.79724,1.350338 -12.50545,2.237485 -14.36654,2.232788 -21.6135,3.477779 -23.47953,4.033664 -0.8734,0.260182 -1.76664,0.488595 -1.98499,0.507584 -0.58079,0.05051 -0.27641,1.34944 0.81262,3.46776 0.52679,1.02469 7.92874,14.28404 16.44877,29.46524 8.52003,15.18119 15.49097,27.69685 15.49097,27.81257 0,0.11572 -22.26216,0.21041 -49.47146,0.21041 l -49.471468,0 14.436346,-9.45361 z"
     id="path2997"
     inkscape:connector-curvature="0" />
  <path
     style="fill:#fffff;fill-opacity:0.97254902;stroke:#fffff;stroke-width:0.39699848999999998;stroke-opacity:1"
     d="m 185.72754,144.85182 c -4.36773,-0.42305 -8.1998,-2.41966 -11.74403,-6.11894 -1.69374,-1.76785 -3.66461,-4.97964 -4.08049,-6.64973 -0.14952,-0.60046 -0.42554,-1.09174 -0.61336,-1.09174 -0.18783,0 -0.23867,-0.26798 -0.11299,-0.5955 0.12568,-0.32753 0.1041,-0.90814 -0.048,-1.29025 -0.34667,-0.87114 -0.36298,-5.24209 -0.0227,-6.09424 0.13956,-0.34953 0.2165,-0.79616 0.17097,-0.9925 -0.0919,-0.39644 0.29643,-1.56889 0.87971,-2.65587 0.20981,-0.39099 0.28318,-0.86993 0.16304,-1.06431 -0.12013,-0.19438 -0.0296,-0.47011 0.20114,-0.61272 0.23076,-0.14262 0.88904,-1.00355 1.46284,-1.91318 1.44232,-2.28646 4.54991,-5.19841 6.56776,-6.15428 3.1331,-1.48418 4.75612,-2.05007 5.87979,-2.05007 0.6155,0 1.21457,-0.1545 1.33128,-0.34334 0.45254,-0.73222 6.91437,0.41645 10.0163,1.78051 2.85629,1.25605 5.64238,4.06442 7.32539,7.38396 0.47386,0.93464 0.97155,1.78866 1.10598,1.89783 0.13443,0.10918 0.29435,0.64513 0.35537,1.191 0.061,0.54587 0.26537,1.04572 0.4541,1.11078 0.18874,0.0651 0.25196,0.46702 0.1405,0.89325 -0.11146,0.42623 -0.0427,0.77496 0.15275,0.77496 0.19547,0 0.35139,1.87582 0.34648,4.16848 -0.005,2.29267 -0.16484,4.16849 -0.35541,4.16849 -0.19056,0 -0.25304,0.3573 -0.13884,0.79399 0.1142,0.4367 0.0266,0.794 -0.19467,0.794 -0.22127,0 -0.29948,0.26798 -0.17379,0.5955 0.12568,0.32752 0.0889,0.5955 -0.0816,0.5955 -0.17058,0 -0.68216,0.84858 -1.13684,1.88574 -1.82817,4.17014 -7.41325,8.36119 -12.09584,9.07674 -0.94418,0.14428 -1.98467,0.38144 -2.31219,0.52702 -0.32752,0.14558 -1.8767,0.1406 -3.44262,-0.0111 l 0,0 z"
     id="path2999"
     inkscape:connector-curvature="0" />
  <path
     style="fill:#000000;fill-opacity:0.97254902;stroke:#000000;stroke-width:0.39699849;stroke-opacity:1"
     d="m 102.45029,160.76629 -24.986608,-0.1985 14.863143,-9.7033 c 24.222085,-15.81322 36.600895,-24.06731 38.228055,-25.49013 l 1.53,-1.33786 -0.92689,-1.98128 c -0.5098,-1.0897 -3.74656,-7.44406 -7.19281,-14.1208 -7.51159,-14.552923 -7.96902,-15.700083 -7.23412,-18.141992 0.716,-2.37908 2.37092,-4.669972 3.89135,-5.386777 1.94815,-0.918453 9.02724,-2.290593 31.82539,-6.168714 18.30919,-3.11452 22.89164,-3.840223 28.98089,-4.58958 3.25256,-0.400267 7.10269,1.957105 8.82335,5.402389 1.98142,3.967429 2.00984,7.984501 0.0757,10.700779 -1.70549,2.395132 -3.79456,2.935116 -23.68145,6.121182 -21.90432,3.509277 -20.74895,3.290436 -20.74895,3.930092 0,0.699811 3.81498,7.607161 19.92862,36.082551 7.63904,13.4994 13.82809,24.59572 13.75346,24.65849 -0.30213,0.25407 -53.77494,0.40898 -77.12911,0.22345 l 0,0 z"
     id="path3069"
     inkscape:connector-curvature="0" />
  <path
     style="fill:#ffffff;fill-opacity:0.97254901999999999;stroke:#000000;stroke-width:0.39699848999999998;stroke-opacity:1"
     d="m 49.823685,177.57172 0,-6.32302 3.496418,-0.44132 c 2.221758,-0.28044 5.442009,-1.12814 8.833217,-2.32525 4.755849,-1.67884 5.704136,-1.8842 8.711286,-1.88656 2.966155,-0.002 4.041244,0.22098 8.88463,1.84534 9.578162,3.21229 14.607506,3.3061 21.591484,0.40273 8.00577,-3.32815 10.45352,-3.31812 19.24945,0.0789 7.24923,2.79965 11.87329,2.69425 21.19673,-0.48317 4.91708,-1.67574 5.87855,-1.87614 9.0729,-1.89105 3.04486,-0.0142 4.07178,0.16699 6.94748,1.2259 1.85597,0.68341 4.39726,1.61933 5.64731,2.07982 1.88282,0.69358 3.1663,0.83725 7.47972,0.83725 5.19266,0 5.22445,-0.006 11.62213,-2.07108 5.75165,-1.85685 6.78479,-2.07244 9.98821,-2.08424 3.38721,-0.0125 3.84133,0.0935 8.73396,2.03871 2.83854,1.12854 6.00957,2.17606 7.04673,2.32782 l 1.88574,0.27594 0,6.1084 0,6.1084 -1.00497,0 c -0.55274,0 -3.36646,-0.93465 -6.25273,-2.07699 l -5.24775,-2.07699 -5.35948,0.006 -5.35948,0.006 -6.25222,2.07085 c -5.87972,1.94747 -6.49126,2.07085 -10.2647,2.07085 -3.82656,0 -4.31716,-0.10315 -10.58728,-2.22607 -6.57011,-2.22448 -6.57764,-2.22594 -10.57772,-2.0586 -3.59409,0.15036 -4.38813,0.33167 -7.77441,1.77519 -4.89661,2.08733 -6.74868,2.50948 -11.00985,2.50948 -4.21285,0 -6.81461,-0.62871 -11.43454,-2.76313 l -3.47155,-1.60386 -5.05231,0 -5.05231,0 -3.72539,1.75514 c -4.57735,2.15651 -7.538569,2.76279 -12.342231,2.52694 -3.234013,-0.15879 -4.303471,-0.4202 -8.652591,-2.11498 l -4.962481,-1.93379 -4.962481,-0.0115 -4.962482,-0.0115 -4.849255,2.04987 c -3.901762,1.64935 -5.472541,2.10424 -8.039219,2.32814 l -3.189965,0.27826 0,-6.32301 z"
     id="path3071"
     inkscape:connector-curvature="0" />
  <path
     style="fill:#ffffff;fill-opacity:0.97254902;stroke:#000000;stroke-width:0.39699849;stroke-opacity:1"
     d="m 78.024757,160.23185 c 0.319726,-0.29394 6.298098,-4.25528 13.285272,-8.80299 19.083901,-12.42103 37.942381,-24.97786 39.455331,-26.27114 l 1.34346,-1.14841 -7.79469,-15.34855 c -6.5757,-12.948224 -7.79333,-15.615206 -7.78598,-17.053626 0.0108,-2.110231 1.06534,-4.504551 2.70705,-6.146261 1.82006,-1.820054 4.68244,-2.423577 39.16758,-8.258361 20.18094,-3.414557 23.73054,-3.884006 25.58731,-3.384031 2.79955,0.75384 5.7317,3.435107 6.78671,6.206017 1.99583,5.241898 0.76512,10.041173 -3.00226,11.707666 -2.36306,1.045292 -5.35729,1.623365 -24.58224,4.745905 -9.37496,1.522694 -17.14621,2.870235 -17.26943,2.994535 -0.31499,0.317736 1.69717,3.997766 18.69418,34.189696 8.26383,14.67911 15.02514,26.7826 15.02514,26.89664 0,0.11405 -22.99472,0.20735 -51.09938,0.20735 -42.8502,0 -51.005527,-0.0863 -50.518053,-0.53444 z"
     id="path3073"
     inkscape:connector-curvature="0" />
  <path
     style="fill:#ffffff;fill-opacity:0.97254902;stroke:#000000;stroke-width:0.39699849;stroke-opacity:1"
     d="m 183.21518,144.16608 c -5.31868,-1.39021 -10.00013,-5.36614 -12.55712,-10.66469 -1.44742,-2.99932 -1.49802,-3.24798 -1.48024,-7.27397 0.0214,-4.84062 0.82458,-7.59211 3.13504,-10.73958 2.90222,-3.95362 6.59243,-6.3983 11.62764,-7.70305 3.0751,-0.79684 4.07676,-0.77414 7.79429,0.17665 4.20256,1.07483 6.34677,2.22368 8.38832,4.49437 4.03578,4.48875 5.52478,8.81814 5.23943,15.23407 -0.15646,3.51795 -0.34151,4.37596 -1.41333,6.55299 -2.48943,5.05641 -6.46687,8.33247 -11.89447,9.79699 -3.72409,1.00487 -5.3872,1.02861 -8.83956,0.12622 z"
     id="path3075"
     inkscape:connector-curvature="0" />
</svg>
