<?xml version="1.0" encoding="UTF-8" standalone="no"?>
<!-- Created with Inkscape (http://www.inkscape.org/) -->

<svg
   xmlns:dc="http://purl.org/dc/elements/1.1/"
   xmlns:cc="http://creativecommons.org/ns#"
   xmlns:rdf="http://www.w3.org/1999/02/22-rdf-syntax-ns#"
   xmlns:svg="http://www.w3.org/2000/svg"
   xmlns="http://www.w3.org/2000/svg"
   xmlns:sodipodi="http://sodipodi.sourceforge.net/DTD/sodipodi-0.dtd"
   xmlns:inkscape="http://www.inkscape.org/namespaces/inkscape"
   id="svg2"
   version="1.1"
   inkscape:version="0.48.4 r9939"
   width="266"
   height="265"
   sodipodi:docname="canoe.svg">
  <sodipodi:namedview
     pagecolor="#ffffff"
     bordercolor="#666666"
     borderopacity="1"
     objecttolerance="10"
     gridtolerance="10"
     guidetolerance="10"
     inkscape:pageopacity="0"
     inkscape:pageshadow="2"
     inkscape:window-width="1542"
     inkscape:window-height="775"
     id="namedview4"
     showgrid="false"
     inkscape:zoom="2.5189011"
     inkscape:cx="72.477632"
     inkscape:cy="130.58312"
     inkscape:window-x="58"
     inkscape:window-y="34"
     inkscape:window-maximized="0"
     inkscape:current-layer="svg2" />
  <metadata
     id="metadata8">
    <rdf:RDF>
      <cc:Work
         rdf:about="">
        <dc:format>image/svg+xml</dc:format>
        <dc:type
           rdf:resource="http://purl.org/dc/dcmitype/StillImage" />
        <dc:title />
      </cc:Work>
    </rdf:RDF>
  </metadata>
  <defs
     id="defs6" />
  <path
     style="fill:#000000;stroke:none;stroke-width:1px;stroke-linecap:butt;stroke-linejoin:miter;stroke-opacity:1;fill-opacity:0.39215687"
     d="m 21.040921,250.31106 -3.572987,9.52796 47.242823,-9.13097 37.317863,0.794 102.82261,7.54297 40.49385,-14.68894 10.32196,-39.69985 c 0,0 -0.794,-49.62482 -1.19099,-51.60981 -0.397,-1.98499 -15.08595,-86.148677 -15.08595,-86.148677 L 250.90306,26.006896 240.1841,25.212899 226.68615,95.084637 241.77209,215.37519 z"
     id="path4830"
     inkscape:connector-curvature="0" />
  <path
     style="fill:#1b4673;stroke:none"
     d="m 204.71993,13.965748 -51.21875,9.125 -81.000001,-8.34375 -59.53125,0.8125 8.3125,48.8125 -4.75,50.437502 3.1875,25.40625 7.9375,63.125 -16.28125,53.59375 50.40625,-10.34375 39.718751,-0.375 65.875,5.9375 36.53125,1.59375 36.53125,-10.71875 11.125,-38.125 -0.8125,-52.375 -14.6875,-86.156252 13.5,-47.65625 -44.84375,-4.75 z m -72.40625,69.125 c 4.85191,0 7.33697,3.601978 7.84375,7.65625 0.51073,4.08582 -2.23111,8.605641 -7.59375,9.03125 -4.75488,0.377372 -8.57975,-3.928173 -8.75,-7.84375 -0.17023,-3.91558 2.62662,-8.84375 8.5,-8.84375 z m 15.375,13.40625 c 0.37042,0.004 0.70869,0.153564 1.03125,0.625 1.37851,2.014763 3.47075,8.060492 4.5625,6.968752 1.09174,-1.09175 2.29976,-1.3105 3.09375,-0.21875 0.794,1.09174 0.0955,3.3935 -0.5,4.1875 -0.59545,0.794 -0.50175,0.89176 0.0937,2.28125 0.59549,1.3895 4.37229,8.0255 4.96875,8.0625 9.38005,-2.14652 54.86547,-8.33474 66.375,-3.5625 -0.84216,10.94809 -9.81885,13.76591 -29.75,22.1875 -4.98279,2.1054 -12.72792,4.97078 -23.28125,7.34375 3.2174,6.49859 7.33355,13.05444 8.59375,16.09375 1.10957,2.67602 12.80588,8.98588 16.8125,15.75 1.62622,2.74545 7.14763,12.45525 -0.1875,16.34375 -7.17649,3.8044 -14.19137,-3.1353 -16.5,-7.5 -3.49983,-6.61679 -3.35657,-19.64464 -4.53125,-21.9375 -1.20566,-2.35333 -5.54553,-11.12534 -9.1875,-17.96875 -26.27934,5.97424 -79.655721,13.64247 -87.656251,14.625 -16.00106,1.96505 -32.84652,-0.0406 -36.5,-8.71875 -3.65348,-8.67817 32.31482,-19.45358 50.3125,-22.0625 1.98499,-0.49624 1.987,1.37325 1.09375,1.96875 -0.64512,0.44662 -0.71157,1.51236 -0.6875,2.78125 0.0241,1.26889 1.8715,1.49445 3.0625,1.59375 1.736871,-0.0497 0.80551,0.11025 3.187501,-0.1875 1.14139,-0.0992 1.386,-0.66938 1.1875,-2.40625 1.09175,-24.21691 13.21853,-31.7103 18.15625,-32.937502 2.06013,-0.512017 2.97075,-0.683748 4.0625,-0.1875 1.09175,0.496252 2.99101,1.877002 4.28125,2.968752 1.29025,1.09174 2.1655,2.18775 2.5625,3.875 0.397,1.68724 -0.0972,3.37727 1.09375,6.15625 1.191,2.77899 3.36148,4.26688 4.28125,5.4375 0.54588,0.6947 1.29425,0.91901 2.1875,0.125 1.73174,-1.53934 11.08411,-10.90823 10.40625,-12.21875 -0.74437,-1.43912 -3.456,-5.25576 -4.25,-6.843752 -0.79399,-1.587994 0.171,-2.132375 0.46875,-2.28125 0.37924,-0.189616 0.78583,-0.347732 1.15625,-0.34375 z m 5.53125,15.281252 c 0,0 -9.11335,11.92585 -11.21875,14.03125 -2.1054,2.10541 -4.34852,2.93379 -6.875,0.96875 -2.52648,-1.96505 -9.2696,-9.39354 -11.375,-10.9375 -2.80721,0.98252 -7.44597,14.3215 -3.65625,19.09375 8.84269,0.14036 31.93803,-6.94491 32.21875,-10.875 0.21054,-2.1054 0.77595,-3.45286 -2.03125,-3.3125 2.03522,-0.63162 3.84189,-0.98571 7,-1.6875 l -4.0625,-7.28125 z m -88.312501,49 c 5.76519,0 8.73958,3.6567 16.21875,3.8125 7.47916,0.15583 8.33116,-3.8125 15.03125,-3.8125 6.700071,0 8.176651,3.8125 15.500001,3.8125 7.32334,0 8.80036,-3.50087 15.65625,-3.8125 6.8559,-0.31163 8.73872,3.8125 15.90625,3.8125 7.16753,0 10.2691,-3.65668 17.125,-3.8125 6.8559,-0.15582 8.26694,3.96832 14.34375,3.8125 l 0,10.4375 c -6.23264,0 -6.70878,-3.8125 -14.34375,-3.8125 -7.63498,0 -9.17838,3.8125 -17.125,3.8125 -7.94661,0 -8.89454,-3.65668 -15.90625,-3.8125 -7.01172,-0.15582 -6.46311,3.96832 -15.65625,3.8125 -9.19312,-0.15582 -7.86502,-3.8125 -15.500001,-3.8125 -7.63498,0 -5.99394,3.65668 -15.03125,3.8125 -9.03732,0.15582 -8.42795,-3.8125 -16.21875,-3.8125 -7.79079,0 -7.71268,4.90321 -16.75,3.8125 l 0,-10.4375 c 8.72569,0.15582 10.98481,-3.8125 16.75,-3.8125 z m 2,16 c 5.76519,0 8.73958,3.6567 16.21875,3.8125 7.47916,0.15583 8.33116,-3.8125 15.03125,-3.8125 6.700081,0 8.176651,3.8125 15.500001,3.8125 7.32334,0 8.80036,-3.50087 15.65625,-3.8125 6.8559,-0.31163 8.73872,3.8125 15.90625,3.8125 7.16753,0 10.2691,-3.65668 17.125,-3.8125 6.8559,-0.15582 8.26694,3.96832 14.34375,3.8125 l 0,10.4375 c -6.23264,0 -6.70878,-3.8125 -14.34375,-3.8125 -7.63498,0 -9.17838,3.8125 -17.125,3.8125 -7.94661,0 -8.89454,-3.65668 -15.90625,-3.8125 -7.01172,-0.15582 -6.46311,3.96832 -15.65625,3.8125 -9.19312,-0.15582 -7.86502,-3.8125 -15.500001,-3.8125 -7.63498,0 -5.99394,3.65668 -15.03125,3.8125 -9.03732,0.15582 -8.42795,-3.8125 -16.21875,-3.8125 -7.79079,0 -7.71268,4.90321 -16.75,3.8125 l 0,-10.4375 c 8.72569,0.15582 10.98481,-3.8125 16.75,-3.8125 z"
     id="path2987"
     inkscape:connector-curvature="0" />
  <path
     sodipodi:nodetypes="cscssssscsccccsssssssssssssccczcczc"
     inkscape:connector-curvature="0"
     id="path3863"
     d="m -333.66857,-82.826429 c 3.65348,8.67817 20.49258,10.66739 36.49364,8.70234 8.00053,-0.98253 61.38002,-8.63096 87.65936,-14.6052 3.64197,6.84341 7.98202,15.5971 9.18768,17.95043 1.17468,2.29286 1.00715,15.32061 4.50698,21.9374 2.30863,4.3647 9.34519,11.32711 16.52168,7.52271 7.33513,-3.8885 1.79086,-13.60176 0.16464,-16.34721 -4.00662,-6.76412 -15.69919,-13.07066 -16.80876,-15.74668 -1.2602,-3.03931 -5.35772,-9.62556 -8.57512,-16.12415 10.55333,-2.37297 18.29826,-5.22025 23.28105,-7.32565 19.93115,-8.421591 28.91419,-11.228821 29.75635,-22.176911 -11.50953,-4.77224 -57.01736,1.4036 -66.39741,3.55012 -0.59646,-0.037 -4.35897,-6.68304 -4.95446,-8.07254 -0.5955,-1.38949 -0.69475,-1.48874 -0.0993,-2.28275 0.59549,-0.794 1.29024,-3.07674 0.49624,-4.16849 -0.79399,-1.09174 -1.98499,-0.89324 -3.07673,0.1985 -1.09175,1.09175 -3.18698,-4.9327 -4.56549,-6.94746 -0.64512,-0.94287 -1.42502,-0.67698 -2.18349,-0.29775 -0.29775,0.14887 -1.29024,0.69475 -0.49625,2.28274 0.794,1.58799 3.52337,5.4091 4.26774,6.84822 0.67786,1.31052 -8.68947,10.66837 -10.42121,12.20771 -0.89325,0.79401 -1.63762,0.5955 -2.1835,-0.0992 -0.91977,-1.17062 -3.07673,-2.67974 -4.26773,-5.45873 -1.19099,-2.77898 -0.69474,-4.46624 -1.09174,-6.15348 -0.397,-1.68725 -1.29025,-2.779 -2.5805,-3.87074 -1.29024,-1.09174 -3.17598,-2.48123 -4.26773,-2.97748 -1.09175,-0.49625 -2.0091,-0.31352 -4.06923,0.1985 -4.93772,1.2272 -17.07094,8.73397 -18.16269,32.95088 0.1985,1.736871 -0.0496,2.282741 -1.19099,2.381991 -2.382,0.29775 -1.43912,0.14883 -3.17599,0.1985 -1.191,-0.0993 -3.05267,-0.3191 -3.07674,-1.587991 -0.0241,-1.26889 0.0496,-2.33237 0.69475,-2.77899 0.89324,-0.5955 0.89324,-2.48124 -1.09175,-1.985 -17.99768,2.60892 -53.94678,13.398241 -50.2933,22.076411 z"
     style="fill:none;stroke:#000000;stroke-width:1.25;stroke-linecap:butt;stroke-linejoin:miter;stroke-miterlimit:4;stroke-opacity:1;stroke-dasharray:none" />
  <path
     sodipodi:nodetypes="ccccccccc"
     inkscape:connector-curvature="0"
     id="path3865"
     d="m -221.52079,-114.82854 -4.07045,-7.29873 c 0,0 -9.12341,11.93061 -11.22881,14.03601 -2.1054,2.10541 -4.35117,2.94757 -6.87765,0.98253 -2.52648,-1.96505 -9.26377,-9.40414 -11.36917,-10.9481 -2.80721,0.98252 -7.43909,14.31674 -3.64937,19.088991 8.84269,0.14036 31.93194,-6.947831 32.21266,-10.877921 0.21054,-2.1054 0.77198,-3.43882 -2.03522,-3.29846 2.03522,-0.63162 3.8599,-0.98253 7.01801,-1.68432 z"
     style="fill:none;stroke:#000000;stroke-width:1.25;stroke-linecap:butt;stroke-linejoin:miter;stroke-miterlimit:4;stroke-opacity:1;stroke-dasharray:none" />
  <path
     sodipodi:nodetypes="sssss"
     inkscape:connector-curvature="0"
     id="path3867"
     d="m -246.49288,-150.7987 c 4.85191,0 7.32437,3.60664 7.83115,7.66092 0.51073,4.08582 -2.21315,8.59724 -7.57579,9.02285 -4.75488,0.37738 -8.59725,-3.91558 -8.7675,-7.83116 -0.17023,-3.91558 2.63876,-8.85261 8.51214,-8.85261 z"
     style="fill:none;stroke:#000000;stroke-width:1.25;stroke-linecap:butt;stroke-linejoin:miter;stroke-miterlimit:4;stroke-opacity:1;stroke-dasharray:none" />
  <path
     sodipodi:nodetypes="ccccccccccccccccccc"
     inkscape:connector-curvature="0"
     id="path3869"
     d="m -204.12146,-69.290539 c -6.07681,0.15582 -7.47916,-3.97331 -14.33506,-3.81749 -6.8559,0.15582 -9.97222,3.81749 -17.13975,3.81749 -7.16753,0 -9.03731,-4.12912 -15.89321,-3.81749 -6.85589,0.31163 -8.33616,3.81749 -15.6595,3.81749 -7.32335,0 -8.80359,-3.81749 -15.50367,-3.81749 -6.70008,0 -7.55708,3.97332 -15.03623,3.81749 -7.47917,-0.1558 -10.43967,-3.81749 -16.20486,-3.81749 -5.76519,0 -8.02451,3.97331 -16.7502,3.81749 l 0,10.43967 c 9.03732,1.09071 8.95941,-3.81749 16.7502,-3.81749 7.7908,0 7.16753,3.97331 16.20486,3.81749 9.03731,-0.15582 7.40125,-3.81749 15.03623,-3.81749 7.63498,0 6.31054,3.66167 15.50367,3.81749 9.19314,0.15582 8.64778,-3.97331 15.6595,-3.81749 7.01171,0.15582 7.9466,3.81749 15.89321,3.81749 7.94662,0 9.50477,-3.81749 17.13975,-3.81749 7.63497,0 8.10242,3.81749 14.33506,3.81749 z"
     style="fill:none;stroke:#000000;stroke-width:1.25;stroke-linecap:butt;stroke-linejoin:miter;stroke-miterlimit:4;stroke-opacity:1;stroke-dasharray:none" />
  <path
     style="fill:none;stroke:#000000;stroke-width:1.25;stroke-linecap:butt;stroke-linejoin:miter;stroke-miterlimit:4;stroke-opacity:1;stroke-dasharray:none"
     d="m -202.12146,-53.290539 c -6.07681,0.15582 -7.47916,-3.97331 -14.33506,-3.81749 -6.8559,0.15582 -9.97222,3.81749 -17.13975,3.81749 -7.16753,0 -9.03731,-4.12912 -15.89321,-3.81749 -6.85589,0.31163 -8.33616,3.81749 -15.6595,3.81749 -7.32335,0 -8.80359,-3.81749 -15.50367,-3.81749 -6.70008,0 -7.55708,3.97332 -15.03623,3.81749 -7.47917,-0.1558 -10.43967,-3.81749 -16.20486,-3.81749 -5.76519,0 -8.02451,3.97331 -16.7502,3.81749 l 0,10.43967 c 9.03732,1.09071 8.95941,-3.81749 16.7502,-3.81749 7.7908,0 7.16753,3.97331 16.20486,3.81749 9.03731,-0.15582 7.40125,-3.81749 15.03623,-3.81749 7.63498,0 6.31055,3.66167 15.50367,3.81749 9.19314,0.15582 8.64778,-3.97331 15.6595,-3.81749 7.01171,0.15582 7.9466,3.81749 15.89321,3.81749 7.94662,0 9.50477,-3.81749 17.13975,-3.81749 7.63497,0 8.10242,3.81749 14.33506,3.81749 z"
     id="path3871"
     inkscape:connector-curvature="0"
     sodipodi:nodetypes="ccccccccccccccccccc" />
  <path
     transform="translate(-363.34277,33.602976)"
     d="m 236.2141,122.47753 a 126.64252,126.64252 0 1 1 -253.28503,0 126.64252,126.64252 0 1 1 253.28503,0 z"
     sodipodi:ry="126.64252"
     sodipodi:rx="126.64252"
     sodipodi:cy="122.47753"
     sodipodi:cx="109.57159"
     id="path3806"
     style="fill:#0077ff;fill-opacity:1;stroke:none"
     sodipodi:type="arc" />
  <path
     style="fill:#000000;fill-opacity:0.97254902;stroke:#000000;stroke-width:0.39699852;stroke-opacity:1"
     d="m 127.90657,98.111366 c -4.5411,-3.070856 -5.00319,-9.340787 -0.94036,-12.759429 1.75064,-1.473069 2.93466,-1.88652 5.40323,-1.886772 2.4699,-2.52e-4 4.02834,0.743782 5.63137,2.688542 4.43385,5.379024 0.85112,13.247904 -6.03182,13.247904 -1.7746,0 -2.49082,-0.227475 -4.06242,-1.290245 z"
     id="path2989"
     inkscape:connector-curvature="0" />
  <path
     style="fill:#000000;fill-opacity:0.97254902;stroke:#000000;stroke-width:0.39699852;stroke-opacity:1"
     d="m 193.04608,193.11904 c -2.94516,-0.717 -6.1889,-3.0545 -8.37909,-6.03814 -2.57382,-3.50624 -3.74849,-7.8199 -5.10311,-18.73967 l -0.56775,-4.5768 -4.36364,-8.65925 c -2.4,-4.76258 -4.60603,-8.98581 -4.90229,-9.38495 -0.51613,-0.69536 -0.95293,-0.64246 -10.4463,1.26514 -14.85842,2.98564 -41.20155,7.34073 -69.060434,11.41718 -21.931631,3.20915 -35.707183,1.87458 -42.320297,-4.09997 -1.792557,-1.61947 -2.739035,-3.19822 -2.739035,-4.56879 0,-5.32937 17.894985,-13.58596 40.09685,-18.50031 11.377867,-2.51848 12.18608,-2.52523 10.927416,-0.0912 -1.452177,2.80819 -0.137294,4.36977 3.688378,4.38038 3.126332,0.009 3.645672,-0.40218 3.648482,-2.88635 0.003,-2.8063 1.01786,-9.35629 2.01088,-12.98053 2.76274,-10.08324 9.17499,-17.74844 16.42703,-19.63686 2.26562,-0.589963 2.4272,-0.580924 3.96755,0.22195 2.33677,1.21799 5.21611,3.74612 5.70756,5.01137 0.23432,0.60329 0.61854,2.40924 0.8538,4.01324 0.23526,1.60399 0.71377,3.46944 1.06335,4.14545 0.91038,1.76049 4.49782,5.44365 5.30218,5.44365 0.70362,0 7.05406,-6.23644 9.89683,-9.71919 0.88787,-1.08774 1.6143,-2.3102 1.6143,-2.71656 0,-0.40637 -0.98257,-2.36091 -2.18349,-4.34343 -1.20092,-1.98251 -2.18349,-3.835474 -2.18349,-4.117689 0,-0.282214 0.36872,-0.710449 0.81937,-0.951633 1.08618,-0.581307 1.54789,-0.161139 2.94963,2.684244 0.62096,1.260498 1.55707,2.875688 2.08023,3.589308 0.9456,1.28985 0.95791,1.29353 2.09043,0.62453 0.9441,-0.55769 1.24569,-0.5846 1.76077,-0.15713 0.79899,0.6631 0.7948,2.50495 -0.009,4.05976 -0.61317,1.18573 -0.58953,1.29864 0.84773,4.04952 2.20267,4.21586 3.85973,6.60127 4.58569,6.60127 0.35581,0 1.60922,-0.18505 2.78535,-0.41121 8.1205,-1.56154 25.25728,-3.56773 37.46266,-4.38572 10.86739,-0.72832 24.11077,-0.0157 25.49857,1.37213 0.50398,0.50398 -0.78057,4.67988 -1.99549,6.48704 -2.79331,4.155 -7.6816,6.99841 -23.29594,13.55076 -9.11535,3.82513 -16.91948,6.53533 -23.02591,7.99639 -2.07432,0.49631 -3.92277,1.03923 -4.10768,1.20649 -0.18491,0.16726 1.76294,4.18154 4.32854,8.92063 l 4.66473,8.61652 5.59642,4.45504 c 6.70116,5.33447 9.4852,8.25911 11.48531,12.06532 3.19638,6.08271 3.11205,10.81584 -0.23699,13.30187 -2.28231,1.69419 -4.5085,2.15119 -7.23989,1.48624 l 0,0 z m -63.12276,-59.38952 c 9.24348,-2.01272 17.36253,-4.96842 21.24831,-7.73534 1.45527,-1.03625 2.10421,-4.18583 1.02503,-4.97495 -0.56324,-0.41185 -0.27244,-0.56297 1.92311,-0.99938 1.42268,-0.28278 2.77253,-0.629 2.99966,-0.76937 0.46045,-0.28457 -3.46073,-7.65636 -3.9687,-7.46112 -0.16844,0.0647 -2.05111,2.35082 -4.18372,5.08019 -7.20943,9.22683 -8.74099,10.72112 -10.98476,10.71747 -1.50398,-0.002 -3.14812,-1.26671 -8.86323,-6.81545 l -5.44464,-5.28613 -1.25733,1.45452 c -2.94153,3.40284 -4.81519,13.03455 -3.25917,16.75396 l 0.64423,1.53993 2.87711,-0.27672 c 1.58241,-0.1522 4.84226,-0.70462 7.2441,-1.22761 z"
     id="path2991"
     inkscape:connector-curvature="0" />
  <path
     style="fill:#000000;fill-opacity:0.97254902;stroke:#000000;stroke-width:0.39699852;stroke-opacity:1"
     d="m 48.340122,169.94081 0,-4.97731 2.282742,-0.25253 c 2.415045,-0.26716 5.265728,-1.06115 9.825713,-2.73671 3.892296,-1.43021 5.387003,-1.32765 11.655899,0.79981 4.89935,1.66268 5.774205,1.83962 9.186523,1.85802 3.609786,0.0195 3.941696,-0.0545 7.741471,-1.72386 3.612881,-1.58731 4.255665,-1.74383 7.145973,-1.74003 2.763892,0.004 3.716863,0.21429 7.344477,1.62345 6.76798,2.62907 9.88952,2.60687 17.00007,-0.12091 3.33386,-1.27895 4.28892,-1.47506 7.21684,-1.48186 3.0523,-0.007 3.79143,0.15625 7.74147,1.71089 4.0164,1.58076 4.65382,1.71811 7.93997,1.71086 3.13912,-0.007 4.19967,-0.21608 8.73396,-1.72246 4.46848,-1.48452 5.61377,-1.71418 8.53547,-1.71164 3.11883,0.003 3.64916,0.12909 6.99991,1.66789 1.99398,0.91572 3.95913,1.66739 4.36699,1.67037 0.40785,0.003 1.14352,0.11314 1.6348,0.2448 0.86598,0.23207 0.89325,0.39101 0.89325,5.2063 l 0,4.96692 -1.5275,-0.24426 c -0.84012,-0.13434 -2.91654,-0.87726 -4.61426,-1.65094 -5.58566,-2.54546 -10.16605,-2.52864 -17.08265,0.0628 -3.65748,1.37032 -4.29812,1.48771 -8.13847,1.49119 -3.97208,0.004 -4.37411,-0.0765 -8.53261,-1.69995 -3.75144,-1.46454 -4.78771,-1.70558 -7.38144,-1.7169 -2.70673,-0.0118 -3.42219,0.16431 -6.95034,1.71108 -3.88345,1.70254 -3.99055,1.7244 -8.4985,1.7351 -4.46495,0.0106 -4.63815,-0.0227 -7.86619,-1.51111 -5.5189,-2.54475 -9.960984,-2.64037 -14.797978,-0.31855 -5.433582,2.6082 -10.804368,2.70862 -16.135167,0.3017 -5.785859,-2.61239 -10.180938,-2.60365 -15.787956,0.0314 -2.539823,1.1936 -3.752513,1.52273 -6.054228,1.64317 l -2.878239,0.15061 0,-4.9773 z"
     id="path2993"
     inkscape:connector-curvature="0" />
  <path
     style="fill:#000000;fill-opacity:0.97254902;stroke:#000000;stroke-width:0.39699852;stroke-opacity:1"
     d="m 51.019862,190.85337 c -0.613646,-0.17694 -0.694747,-0.77622 -0.694747,-5.13369 l 0,-4.93337 1.369954,0 c 2.124486,0 5.243681,-0.7717 9.150506,-2.26386 5.057351,-1.93158 7.039294,-1.88282 13.562659,0.33372 4.704968,1.59868 5.401096,1.73038 9.066257,1.7153 3.788988,-0.0156 4.150259,-0.0945 7.924118,-1.73135 5.495527,-2.38357 7.810458,-2.38417 13.910801,-0.004 4.07664,1.59084 4.63093,1.70571 8.33697,1.72772 3.74826,0.0223 4.22497,-0.0729 8.53547,-1.70317 3.89716,-1.47398 5.00134,-1.72753 7.54297,-1.73206 2.58447,-0.005 3.55391,0.22217 7.34447,1.71806 4.14351,1.63518 4.57014,1.72253 8.33697,1.70694 3.50199,-0.0145 4.49936,-0.19224 8.46067,-1.50784 7.78836,-2.58662 10.54016,-2.59175 16.1613,-0.0301 1.694,0.77198 3.85904,1.51038 4.81121,1.64089 l 1.7312,0.23729 0,4.96248 0,4.96248 -1.70609,-0.23384 c -0.93835,-0.12862 -3.12472,-0.90756 -4.85861,-1.73098 -2.82101,-1.33969 -3.54962,-1.51302 -6.92863,-1.64826 -3.6389,-0.14565 -3.97747,-0.0832 -9.31805,1.71984 -5.39431,1.82114 -5.64284,1.86611 -9.32946,1.688 -3.23363,-0.15623 -4.33907,-0.40729 -7.55901,-1.71676 -3.45096,-1.40343 -4.09359,-1.53491 -7.56161,-1.54709 -3.61078,-0.0127 -3.94894,0.0618 -7.14598,1.57468 l -3.35584,1.58799 -4.96248,0 -4.96248,0 -3.35333,-1.58799 c -3.22392,-1.52672 -3.50817,-1.588 -7.365634,-1.588 -3.857468,0 -4.141711,0.0613 -7.365633,1.588 -3.333984,1.57883 -3.380806,1.58798 -8.117309,1.58564 -4.703099,-0.002 -4.807108,-0.0223 -8.13847,-1.56089 -2.809761,-1.29772 -3.906753,-1.58718 -6.555009,-1.72971 -3.546155,-0.19084 -4.551789,0.035 -9.126432,2.04956 -3.041309,1.33931 -6.36238,2.01024 -7.840721,1.58399 z"
     id="path2995"
     inkscape:connector-curvature="0" />
  <path
     style="fill:#ffffff;fill-opacity:1;stroke:#000000;stroke-width:0.39699852000000002;stroke-opacity:1"
     d="m 193.33427,192.77555 c -0.95772,-0.28278 -1.8639,-0.43838 -2.01374,-0.34578 -0.14983,0.0926 -0.59196,-0.18472 -0.98251,-0.61627 -0.39055,-0.43155 -0.90571,-0.78873 -1.14481,-0.79374 -0.67804,-0.0142 -4.34105,-3.9918 -5.20143,-5.64812 -0.42532,-0.81881 -0.92189,-1.48874 -1.10347,-1.48874 -0.18158,0 -0.21567,-0.18523 -0.0757,-0.41162 0.13991,-0.22639 -0.0905,-1.07497 -0.51214,-1.88574 -0.42159,-0.81077 -0.71998,-1.78677 -0.66309,-2.16888 0.0569,-0.38211 -0.0147,-0.69599 -0.15918,-0.69751 -0.14445,-0.002 -0.30018,-0.82323 -0.34608,-1.82603 -0.0459,-1.00281 -0.23491,-2.0288 -0.42001,-2.27998 -0.1851,-0.25119 -0.30116,-0.90333 -0.25789,-1.4492 0.0433,-0.54588 -0.0461,-1.17115 -0.1985,-1.3895 -0.15244,-0.21835 -0.24221,-0.84362 -0.1995,-1.38949 0.0427,-0.54588 -0.0189,-1.15359 -0.1369,-1.35049 -0.20408,-0.3405 -0.43621,-2.29449 -0.47628,-4.00899 -0.0249,-1.0654 -1.23439,-3.77149 -1.68567,-3.77149 -0.19808,0 -0.24973,-0.17865 -0.11478,-0.397 0.13495,-0.21835 0.0456,-0.397 -0.1985,-0.397 -0.24412,0 -0.33345,-0.17865 -0.1985,-0.397 0.13495,-0.21835 0.0806,-0.39699 -0.12085,-0.39699 -0.20142,0 -0.84773,-1.11656 -1.43626,-2.48125 -1.79218,-4.15574 -4.32593,-9.03171 -4.69323,-9.03171 -0.19085,0 -0.23658,-0.17865 -0.10164,-0.397 0.13495,-0.21835 0.0953,-0.397 -0.088,-0.397 -0.18336,0 -0.5447,-0.55983 -0.80297,-1.24406 -0.46506,-1.23207 -0.48958,-1.2414 -2.54547,-0.96868 -1.14174,0.15146 -2.24814,0.38184 -2.45868,0.51195 -0.21053,0.13012 -1.20336,0.30627 -2.2063,0.39145 -1.00293,0.0852 -1.87971,0.31527 -1.94841,0.51131 -0.0687,0.19603 -0.38133,0.25803 -0.69475,0.13776 -0.31341,-0.12027 -0.88248,-0.0892 -1.26459,0.0689 -0.38211,0.15818 -1.49867,0.36416 -2.48124,0.45774 -0.98257,0.0936 -1.8427,0.33052 -1.91139,0.52656 -0.0687,0.19604 -0.38133,0.25803 -0.69475,0.13776 -0.31342,-0.12027 -0.88249,-0.081 -1.2646,0.0873 -0.38211,0.16826 -0.96272,0.33054 -1.29024,0.36061 -2.63601,0.24205 -5.1857,0.72522 -5.36594,1.01684 -0.11961,0.19353 -0.47972,0.25124 -0.80026,0.12824 -0.32052,-0.123 -0.89541,-0.0886 -1.27752,0.0764 -0.38212,0.165 -1.09671,0.26065 -1.588,0.21256 -0.49128,-0.0481 -0.89325,0.0597 -0.89325,0.23958 0,0.17987 -0.49128,0.34467 -1.09174,0.36622 -0.60046,0.0216 -1.89567,0.16409 -2.87824,0.31676 -5.77064,0.89659 -7.00563,1.10944 -7.54297,1.30001 -0.64721,0.22953 -3.34994,0.57831 -4.46624,0.57636 -0.38211,-7.9e-4 -0.69474,0.13507 -0.69474,0.30165 0,0.16657 -0.58061,0.31174 -1.29025,0.3226 -2.53656,0.0388 -3.87073,0.24563 -3.87073,0.60003 0,0.19801 -0.18179,0.24767 -0.40396,0.11035 -0.38178,-0.23595 -5.85968,0.43517 -7.13902,0.87463 -0.32752,0.11251 -1.31009,0.28297 -2.18349,0.3788 -1.91911,0.21058 -3.17599,0.41109 -3.17599,0.50666 0,0.0973 -3.41283,0.47976 -4.26773,0.47827 -0.38211,-7.9e-4 -0.69479,0.12167 -0.69485,0.27186 -5e-5,0.15019 -0.75931,0.30787 -1.68724,0.3504 -1.993774,0.0914 -2.961402,0.27061 -3.30246,0.61166 -0.136841,0.13685 -0.45465,0.17186 -0.70624,0.0778 -0.251586,-0.094 -2.779875,0.18301 -5.618415,0.61569 -5.569718,0.84899 -7.328995,1.05913 -11.314457,1.35147 -3.056004,0.22416 -15.475638,0.29063 -15.831431,0.0847 -0.222325,-0.12866 -4.677616,-0.69125 -5.904238,-0.74556 -0.272937,-0.0121 -0.496248,-0.15096 -0.496248,-0.30862 0,-0.15765 -0.607684,-0.40065 -1.350409,-0.53998 -2.698255,-0.5062 -7.790121,-3.67991 -8.971935,-5.59213 -1.611987,-2.60824 -0.804536,-4.80456 2.649443,-7.20665 2.344994,-1.63084 8.717087,-5.00818 10.352641,-5.48712 0.491285,-0.14386 0.893246,-0.43872 0.893246,-0.65524 0,-0.21652 0.146797,-0.30295 0.326214,-0.19207 0.179418,0.11089 0.792656,-0.0404 1.362753,-0.33615 0.570097,-0.29576 1.584521,-0.65812 2.254277,-0.80522 0.669755,-0.1471 1.217737,-0.44246 1.217737,-0.65634 0,-0.21389 0.17659,-0.27975 0.392422,-0.14636 0.215833,0.1334 1.221114,-0.12404 2.233958,-0.57207 1.012844,-0.44802 2.176124,-0.81459 2.585066,-0.81459 0.408943,0 0.743532,-0.14037 0.743532,-0.31193 0,-0.17156 0.357299,-0.34596 0.793997,-0.38755 1.711557,-0.163 1.984992,-0.23811 1.984992,-0.54523 0,-0.1751 0.267974,-0.21554 0.595498,-0.0899 0.327524,0.12568 0.595498,0.0202 0.595498,-0.23439 0,-0.2546 0.147367,-0.37183 0.327481,-0.26051 0.304874,0.18842 4.288733,-0.68117 5.627497,-1.22836 0.327524,-0.13387 0.805338,-0.21049 1.061809,-0.17026 0.256472,0.0402 0.569286,-0.0935 0.695143,-0.29711 0.125857,-0.20364 0.585952,-0.27687 1.022433,-0.16273 0.436481,0.11415 0.793717,0.0527 0.793859,-0.13652 1.39e-4,-0.18923 0.759165,-0.388 1.68672,-0.44173 0.927555,-0.0537 1.742903,-0.267 1.811885,-0.47394 0.06898,-0.20695 0.384128,-0.27699 0.700326,-0.15566 0.316197,0.12134 0.812378,0.0235 1.102623,-0.21736 0.29025,-0.24088 0.637568,-0.32812 0.771821,-0.19386 0.134257,0.13425 0.564441,0.10723 0.955969,-0.0601 0.391527,-0.16728 1.560454,-0.34579 2.597612,-0.39668 1.882694,-0.0924 2.386791,0.3399 1.467906,1.25878 -0.889578,0.88958 -0.704144,2.6838 0.373227,3.61121 1.144654,0.98534 1.057362,0.9594 3.716848,1.10489 1.03716,0.0567 1.88574,-0.0513 1.88574,-0.24004 0,-0.18875 0.29728,-0.22912 0.66062,-0.0897 0.4442,0.17046 0.56659,0.10134 0.37357,-0.21096 -0.15788,-0.25545 -0.0787,-0.46446 0.17585,-0.46446 0.2546,0 0.36227,-0.26225 0.23927,-0.58278 -0.123,-0.32054 -0.0422,-0.6949 0.17947,-0.83192 0.2217,-0.13702 0.35953,-0.63403 0.30628,-1.10446 -0.12403,-1.09559 0.4275,-5.64395 1.04243,-8.5968 0.11368,-0.54587 0.31873,-1.52844 0.45568,-2.18349 0.13694,-0.65505 0.2627,-1.50363 0.27947,-1.88574 0.0167,-0.38212 0.18997,-0.69475 0.38489,-0.69475 0.19492,0 0.25157,-0.26798 0.12589,-0.5955 -0.12568,-0.32752 -0.0748,-0.5955 0.11299,-0.5955 0.18782,0 0.46258,-0.49128 0.61056,-1.09174 1.17082,-4.75062 6.43417,-11.71228 10.73447,-14.19812 1.09175,-0.6311 2.07432,-1.24536 2.18349,-1.36501 0.22407,-0.24559 0.91779,-0.37032 3.78709,-0.68094 1.5437,-0.16711 2.12146,-0.0709 2.52985,0.42115 0.29109,0.35075 0.7307,0.6405 0.9769,0.64388 0.2462,0.003 1.29027,0.87261 2.32015,1.9316 1.39638,1.43585 1.93925,2.34281 2.13498,3.56683 0.14436,0.90276 0.37362,1.6424 0.50948,1.64363 0.13585,0.001 0.27623,0.75535 0.31195,1.67581 0.0357,0.92046 0.26013,1.73863 0.49872,1.81815 0.23858,0.0795 0.33205,0.30921 0.20771,0.5104 -0.43731,0.70756 3.81886,5.91836 4.83409,5.91836 0.26502,0 0.57286,0.22331 0.6841,0.49625 0.13578,0.33316 0.46992,0.17008 1.01675,-0.49625 0.44798,-0.54587 0.81847,-0.84614 0.82333,-0.66725 0.0155,0.57205 8.29149,-7.96095 9.29335,-9.58199 0.58573,-0.94773 0.72,-2.85171 0.20111,-2.85171 -0.26785,0 -0.38084,-0.10616 -0.25109,-0.23591 0.27298,-0.27298 -1.59861,-3.79 -2.24794,-4.22425 -0.25459,-0.17026 -0.27088,-0.29673 -0.0391,-0.30382 0.21835,-0.007 0.17948,-0.15038 -0.0864,-0.31931 -0.26585,-0.16892 -0.53383,-0.92108 -0.59549,-1.671452 -0.0909,-1.105517 0.0288,-1.366154 0.6306,-1.374021 0.49913,-0.0065 1.12451,0.706454 1.90673,2.173784 0.6402,1.200919 1.3332,2.243039 1.54001,2.315829 0.20681,0.0728 0.37602,0.44705 0.37602,0.83171 0,0.38466 0.36624,1.03084 0.81388,1.43594 0.67344,0.60946 1.00882,0.66298 1.94347,0.31019 0.62128,-0.2345 1.35726,-0.28566 1.63553,-0.11368 0.57543,0.35564 0.78147,2.36598 0.24248,2.36598 -0.19433,0 -0.2505,0.26798 -0.12481,0.5955 0.12568,0.32753 0.0526,0.5955 -0.16233,0.5955 -0.21497,0 -0.35001,0.53595 -0.3001,1.191 0.0499,0.65504 0.19338,1.19099 0.31882,1.19099 0.12544,0 0.25424,0.34735 0.28622,0.7719 0.032,0.42454 0.69527,1.76788 1.47398,2.98519 0.77871,1.21732 1.42177,2.34382 1.42904,2.50335 0.007,0.15952 0.38477,0.73666 0.83891,1.28253 0.72374,0.86993 1.09944,0.9804 3.04237,0.89456 1.21916,-0.0539 2.38194,-0.26322 2.58395,-0.46522 0.20201,-0.20201 0.61349,-0.27281 0.91441,-0.15734 0.30091,0.11547 0.85976,0.082 1.24187,-0.0744 0.38211,-0.15642 1.23069,-0.32813 1.88574,-0.38158 2.31825,-0.18916 8.74237,-1.07999 9.32947,-1.29371 0.32752,-0.11923 1.84604,-0.27976 3.37448,-0.35672 1.52845,-0.077 3.22562,-0.26096 3.77149,-0.40886 0.54587,-0.1479 1.12344,-0.24062 1.28349,-0.20604 0.16004,0.0346 3.01843,-0.1932 6.35197,-0.50617 13.06924,-1.22702 16.00845,-1.26921 29.15031,-0.41852 0.90827,0.0588 1.80152,0.19204 1.98499,0.29609 0.18348,0.10406 0.80915,0.30268 1.39039,0.44138 1.10511,0.26371 1.14797,0.5238 0.39086,2.37215 -0.25346,0.61878 -0.35969,1.28872 -0.23607,1.48874 0.12362,0.20003 0.0627,0.36369 -0.13537,0.36369 -0.19807,0 -0.67959,0.70843 -1.07004,1.57429 -1.12554,2.49601 -5.16931,5.78839 -9.51415,7.74629 -1.10274,0.49692 -3.79148,1.74067 -5.97497,2.76389 -4.95525,2.32209 -5.00857,2.34579 -8.13847,3.61702 -3.54037,1.43795 -5.23602,2.16507 -6.04884,2.59381 -0.37915,0.2 -0.95976,0.36363 -1.29024,0.36363 -0.33049,0 -0.60089,0.18919 -0.60089,0.42043 0,0.23123 -0.18092,0.30861 -0.40206,0.17194 -0.22112,-0.13667 -0.96317,0.0314 -1.64898,0.37357 -0.68582,0.34213 -1.48746,0.62205 -1.78144,0.62205 -0.29398,0 -0.5345,0.18919 -0.5345,0.42043 0,0.23124 -0.16651,0.31752 -0.37001,0.19175 -0.20351,-0.12577 -1.52756,0.20702 -2.94234,0.73955 -1.41479,0.53252 -2.67748,0.86308 -2.80598,0.73458 -0.12851,-0.12851 -0.23365,-0.0147 -0.23365,0.25295 0,0.26762 -0.15321,0.3919 -0.34048,0.27616 -0.18726,-0.11573 -0.94652,-0.0266 -1.68724,0.1981 -0.74072,0.22469 -1.78959,0.49839 -2.33081,0.60822 -0.54122,0.10984 -1.09714,0.38271 -1.23538,0.60638 -0.13824,0.22368 -0.36535,0.39142 -0.5047,0.37277 -0.13935,-0.0187 -0.70339,-0.0339 -1.25342,-0.0339 -0.89187,0 -0.97053,0.11769 -0.72704,1.08781 0.15016,0.5983 0.51251,1.3273 0.80521,1.62 0.2927,0.2927 0.43067,0.69644 0.3066,0.89718 -0.12406,0.20075 -0.0364,0.36499 0.19485,0.36499 0.23124,0 0.38958,0.13399 0.35187,0.29775 -0.15748,0.6839 5.88545,12.28002 7.16242,13.74435 0.35619,0.40846 2.919,2.59772 5.69515,4.86503 6.13565,5.01108 8.3761,7.20029 10.13821,9.90634 0.67851,1.04198 2.48069,4.94886 2.48069,5.37781 0,0.19117 0.16839,0.3476 0.3742,0.3476 0.20581,0 0.3054,0.35729 0.2213,0.79399 -0.0841,0.4367 -0.0199,0.794 0.14265,0.794 0.6035,0 -0.2475,5.24319 -1.01865,6.27607 -1.69245,2.26684 -5.27973,3.43342 -8.04618,2.61658 l 0,0 z m -68.88953,-57.85307 c 0.4367,-0.091 1.68724,-0.29158 2.77899,-0.44579 3.14068,-0.44364 11.71145,-2.66421 11.71145,-3.03429 0,-0.18446 0.26798,-0.23256 0.5955,-0.10687 0.32753,0.12568 0.5955,0.0363 0.5955,-0.1985 0,-0.23486 0.26797,-0.32419 0.5955,-0.1985 0.32752,0.12568 0.59549,0.0364 0.59549,-0.1985 0,-0.23486 0.26798,-0.32418 0.5955,-0.1985 0.32753,0.12568 0.5955,0.0688 0.5955,-0.12648 0,-0.19524 0.35082,-0.38141 0.77961,-0.41371 0.42878,-0.0323 2.30629,-0.7942 4.17224,-1.69311 3.35786,-1.61763 5.14027,-2.98647 4.73745,-3.63824 -0.11451,-0.18528 -0.0211,-0.33687 0.20763,-0.33687 0.24855,0 0.36029,-0.71737 0.27775,-1.78325 -0.13543,-1.74913 -0.11066,-1.79086 1.29485,-2.18128 0.78811,-0.21891 1.65623,-0.39902 1.92917,-0.40024 0.27294,-0.001 0.49625,-0.19141 0.49625,-0.42264 0,-0.23124 0.17621,-0.31153 0.39158,-0.17842 1.38062,0.85327 -1.14975,-5.15043 -3.04677,-7.22891 -0.55668,-0.60994 -1.41111,0.10242 -3.91225,3.26174 -0.86406,1.09145 -1.74968,2.17972 -1.96803,2.41837 -0.21835,0.23865 -0.84362,1.02161 -1.38949,1.73991 -2.60414,3.42671 -4.54496,5.51074 -6.35198,6.82068 -1.12147,0.81298 -1.64151,0.95157 -2.696,0.71847 -0.71858,-0.15885 -1.69827,-0.62251 -2.17708,-1.03037 -1.83345,-1.56175 -5.719,-5.21702 -8.27894,-7.78829 -1.46736,-1.47386 -2.9097,-2.67974 -3.20519,-2.67974 -0.2955,0 -0.8432,0.3573 -1.21711,0.794 -0.37391,0.4367 -0.55812,0.79399 -0.40935,0.79399 0.14877,0 -0.0343,0.22332 -0.40672,0.49625 -0.78048,0.57193 -2.80364,6.08082 -2.44582,6.65978 0.13153,0.21282 0.0889,0.38695 -0.0947,0.38695 -0.82033,0 -0.97041,8.59921 -0.15883,9.10079 0.2825,0.17459 0.49837,0.43146 0.47972,0.57081 -0.1411,1.05435 0.0653,1.1472 2.05034,0.9223 1.14633,-0.12988 2.44154,-0.31058 2.87824,-0.40154 z"
     id="path2994"
     inkscape:connector-curvature="0" />
  <path
     style="fill:#ffffff;fill-opacity:1;stroke:#000000;stroke-width:0.39699852;stroke-opacity:1"
     d="m 129.61061,98.602452 c -1.67367,-0.66755 -3.44133,-2.199413 -4.17516,-3.618212 -0.60431,-1.168381 -1.17322,-5.586992 -0.71935,-5.586992 0.17827,0 0.29529,-0.133987 0.26003,-0.297749 -0.14153,-0.657342 0.83368,-2.339392 1.90559,-3.286755 2.45845,-2.172807 6.4445,-2.712547 8.95206,-1.212174 1.34493,0.804721 3.35306,3.398133 3.17622,4.101931 -0.0411,0.163762 0.0592,0.298107 0.22293,0.298545 0.49357,0.0013 0.53241,2.75755 0.0634,4.499277 -0.49186,1.82664 -1.9474,3.769027 -3.41739,4.560425 -1.74158,0.937615 -4.64634,1.188642 -6.26834,0.541704 l 0,0 z"
     id="path2996"
     inkscape:connector-curvature="0" />
  <path
     style="fill:#ffffff;fill-opacity:1;stroke:#000000;stroke-width:0.39699852;stroke-opacity:1"
     d="m 48.81652,169.8887 c 0,-4.35279 0.05153,-4.66474 0.770568,-4.66474 0.423812,0 0.88278,-0.18156 1.019928,-0.40347 0.137148,-0.22191 0.395483,-0.31317 0.574076,-0.20279 0.495839,0.30645 4.781402,-0.6436 4.781402,-1.05997 0,-0.20109 0.156342,-0.26899 0.347428,-0.15089 0.351622,0.21731 4.050568,-0.89065 4.416554,-1.32292 0.109175,-0.12894 0.823772,-0.29595 1.587994,-0.37113 0.764222,-0.0752 1.652856,-0.28333 1.974741,-0.46258 0.321885,-0.17925 0.857833,-0.18168 1.190995,-0.005 0.572972,0.30315 2.957894,0.79126 4.476485,0.91617 0.382111,0.0314 0.694748,0.21663 0.694748,0.41155 0,0.19492 0.267974,0.25157 0.595498,0.12589 0.327523,-0.12568 0.595497,-0.0757 0.595497,0.11096 0,0.30918 0.787986,0.54678 2.977489,0.8978 0.436699,0.07 0.921406,0.30595 1.077128,0.5243 0.376205,0.5275 8.932819,0.61381 10.220327,0.10308 0.555224,-0.22024 1.456123,-0.58075 2.001996,-0.80113 0.545873,-0.22037 1.349795,-0.53318 1.786493,-0.69513 0.436698,-0.16195 1.278085,-0.48824 1.869748,-0.72508 0.591663,-0.23685 2.467481,-0.4299 4.168484,-0.42899 4.157381,0.002 4.879231,0.0749 4.879231,0.4913 0,0.19492 0.26797,0.25157 0.59549,0.12589 0.32753,-0.12568 0.5955,-0.0364 0.5955,0.1985 0,0.23486 0.26798,0.32418 0.5955,0.1985 0.32752,-0.12568 0.5955,-0.0364 0.5955,0.1985 0,0.23486 0.26797,0.32418 0.59549,0.1985 0.32753,-0.12569 0.5955,-0.0364 0.5955,0.1985 0,0.23485 0.26798,0.32418 0.5955,0.1985 0.32752,-0.12569 0.5955,-0.0364 0.5955,0.19849 0,0.23486 0.26797,0.32419 0.5955,0.1985 0.32752,-0.12568 0.59549,-0.0363 0.59549,0.1985 0,0.23486 0.25051,0.33089 0.55669,0.2134 0.30617,-0.11749 0.66865,-0.10166 0.80549,0.0352 0.83295,0.83296 8.19836,0.59128 8.48829,-0.27852 0.0692,-0.20756 0.38223,-0.27898 0.69564,-0.15871 0.31342,0.12027 0.56985,0.0104 0.56985,-0.24423 0,-0.2546 0.1492,-0.3707 0.33155,-0.258 0.18235,0.1127 1.63464,-0.24826 3.2273,-0.80213 2.33852,-0.81326 3.55433,-0.99341 6.31817,-0.93616 4.65952,0.0965 4.81193,0.11287 4.81193,0.51679 0,0.19492 0.26797,0.25157 0.5955,0.12589 0.32752,-0.12568 0.59549,-0.0364 0.59549,0.1985 0,0.23486 0.25644,0.32861 0.56985,0.20834 0.31342,-0.12027 0.63154,-0.0336 0.70694,0.1926 0.0754,0.2262 0.62276,0.43948 1.21637,0.47395 0.5936,0.0345 1.0794,0.17433 1.07955,0.3108 3.9e-4,0.47551 2.60598,0.87815 6.25301,0.96633 2.01973,0.0488 3.67223,-0.0325 3.67223,-0.18065 0,-0.14818 0.5736,-0.31313 1.27465,-0.36655 0.70106,-0.0534 1.371,-0.2254 1.48875,-0.38219 0.11775,-0.15679 0.74778,-0.34314 1.40007,-0.41412 0.6523,-0.071 1.27757,-0.24962 1.3895,-0.397 0.11193,-0.14737 0.73946,-0.32509 1.39451,-0.39494 0.65504,-0.0698 1.25091,-0.29427 1.32415,-0.49872 0.0732,-0.20445 0.29655,-0.27075 0.49625,-0.14733 0.1997,0.12342 0.54437,0.11237 0.76593,-0.0246 0.62638,-0.38713 7.53786,-0.43588 7.53747,-0.0532 -1.9e-4,0.18713 0.26763,0.23739 0.59516,0.11171 0.32752,-0.12568 0.59549,-0.073 0.59549,0.11719 0,0.43122 2.22998,1.23705 2.54675,0.92029 0.12773,-0.12774 0.23224,-0.0444 0.23224,0.18522 0,0.41969 3.40277,1.69986 4.51832,1.69986 1.27279,0 1.6393,1.34319 1.50894,5.53003 l -0.12621,4.05387 -1.46178,-0.12722 c -0.80398,-0.07 -1.5511,-0.24335 -1.66028,-0.38529 -0.10917,-0.14194 -0.55579,-0.32058 -0.99249,-0.397 -0.4367,-0.0764 -0.8994,-0.28186 -1.02822,-0.45656 -0.12882,-0.1747 -0.6201,-0.34671 -1.09175,-0.38223 -0.47164,-0.0355 -0.85752,-0.19104 -0.85752,-0.34557 0,-0.36394 -2.32033,-0.9273 -3.47374,-0.8434 -0.49128,0.0357 -0.89325,-0.12113 -0.89325,-0.3486 0,-0.26604 -0.88512,-0.33537 -2.48124,-0.19433 -3.97989,0.35167 -4.26773,0.39485 -4.26773,0.64023 0,0.12823 -0.58061,0.27682 -1.29025,0.3302 -0.70963,0.0534 -1.34644,0.25998 -1.41514,0.45914 -0.0687,0.19915 -0.38133,0.26369 -0.69475,0.14342 -0.31341,-0.12027 -0.56997,-0.0656 -0.57013,0.12155 -1.5e-4,0.18713 -0.48595,0.36843 -1.07955,0.4029 -0.5936,0.0345 -1.14468,0.25889 -1.22462,0.49872 -0.08,0.23983 -0.2692,0.35951 -0.42057,0.26595 -0.15138,-0.0935 -1.38011,0.0605 -2.73052,0.34227 -1.35041,0.28181 -3.31042,0.4233 -4.3556,0.31443 -1.04517,-0.10887 -2.34693,-0.21935 -2.89281,-0.2455 -0.54587,-0.0262 -1.08963,-0.17711 -1.20835,-0.33547 -0.11872,-0.15835 -0.65467,-0.337 -1.19099,-0.397 -0.53633,-0.06 -1.06447,-0.19951 -1.17364,-0.31004 -0.10918,-0.11053 -1.76995,-0.71521 -3.69062,-1.34372 -3.90894,-1.27915 -6.82798,-1.29275 -9.65854,-0.045 -0.84605,0.37296 -1.94025,0.83855 -2.43154,1.03463 -0.49128,0.19609 -1.2952,0.52232 -1.78649,0.72495 -2.28035,0.94056 -11.18505,1.19377 -11.82794,0.33635 -0.11865,-0.15825 -0.56527,-0.34563 -0.99249,-0.41641 -0.42722,-0.0708 -1.17873,-0.34955 -1.67001,-0.61949 -0.49129,-0.26995 -0.89599,-0.35054 -0.89933,-0.17909 -0.003,0.17144 -0.14514,0.0928 -0.31511,-0.1747 -0.16996,-0.26753 -0.74783,-0.53551 -1.28416,-0.5955 -0.53633,-0.06 -1.10278,-0.28773 -1.258789,-0.50608 -0.407456,-0.57027 -7.561063,-0.48428 -7.75356,0.0932 -0.08391,0.25173 -0.408992,0.35928 -0.72241,0.23901 -0.313415,-0.12027 -0.569848,-0.0104 -0.569848,0.24423 0,0.2546 -0.166378,0.36008 -0.369732,0.2344 -0.383509,-0.23702 -3.306703,0.96452 -3.526653,1.44959 -0.06869,0.1515 -0.38133,0.17705 -0.694747,0.0568 -0.313416,-0.12027 -0.569849,-0.0367 -0.569849,0.18567 0,0.22239 -0.312636,0.35397 -0.694747,0.29239 -0.382111,-0.0616 -0.850929,-0.0215 -1.041817,0.089 -0.190888,0.11055 -1.709408,0.16398 -3.374487,0.11875 -4.539342,-0.12333 -4.813911,-0.15438 -4.813911,-0.54445 0,-0.19804 -0.267974,-0.25724 -0.595498,-0.13156 -0.327524,0.12568 -0.595498,0.0841 -0.595498,-0.0925 0,-0.34413 -3.175824,-1.50286 -3.672236,-1.33985 -0.163762,0.0538 -0.297749,-0.0606 -0.297749,-0.25428 0,-0.61834 -5.043559,-1.3421 -7.346995,-1.05431 -1.199533,0.14987 -2.181096,0.39363 -2.18125,0.54168 -1.54e-4,0.14805 -0.470114,0.2964 -1.044356,0.32966 -0.574242,0.0333 -1.196652,0.30124 -1.383135,0.5955 -0.186483,0.29426 -0.341795,0.40711 -0.345139,0.25079 -0.0033,-0.15633 -1.033313,0.0869 -2.288821,0.54061 -1.255507,0.45366 -2.550715,0.91746 -2.878239,1.03068 -0.327524,0.11321 -1.444082,0.22724 -2.481241,0.25339 l -1.885743,0.0475 0,-4.66473 z"
     id="path2998"
     inkscape:connector-curvature="0" />
  <path
     style="fill:#ffffff;fill-opacity:1;stroke:#000000;stroke-width:0.39699852;stroke-opacity:1"
     d="m 50.761576,190.73112 c -0.04954,-0.1246 -0.0495,-1.13074 2.37e-4,-5.85573 l 0.0397,-3.77148 1.323328,0 c 0.727831,0 1.44372,-0.1204 1.590866,-0.26754 0.147145,-0.14715 0.668206,-0.31455 1.157912,-0.37202 1.7321,-0.20324 5.852857,-1.45994 5.852857,-1.78493 0,-0.18127 0.267974,-0.22675 0.595498,-0.10107 0.327523,0.12568 0.595497,0.0364 0.595497,-0.1985 0,-0.23486 0.267974,-0.32418 0.595498,-0.1985 0.327524,0.12568 0.595498,0.0728 0.595498,-0.11748 0,-0.57016 4.626857,-0.62032 7.060623,-0.0765 1.247863,0.27881 2.447491,0.51349 2.665841,0.52151 0.218349,0.008 0.499799,0.15332 0.625444,0.32288 0.125645,0.16956 0.795225,0.34821 1.487955,0.397 0.692731,0.0488 1.259865,0.2418 1.260299,0.42893 4.37e-4,0.18712 0.257221,0.24182 0.570638,0.12155 0.313416,-0.12027 0.640907,-0.005 0.727756,0.25527 0.1124,0.33736 1.635745,0.46292 5.285879,0.43567 2.820385,-0.0211 5.395946,-0.12048 5.72347,-0.22095 1.97028,-0.60441 3.572987,-1.33577 3.572987,-1.63045 0,-0.18737 0.171384,-0.23475 0.380848,-0.1053 0.209469,0.12946 0.700754,0.0637 1.091746,-0.14608 1.367017,-0.73355 2.31545,-0.92293 4.482383,-0.89504 2.927804,0.0377 6.272024,0.81786 7.426334,1.73252 0.26337,0.20869 0.66533,0.26419 0.89325,0.12333 0.22791,-0.14086 0.41438,-0.0863 0.41438,0.12128 0,0.20757 0.49129,0.5227 1.09175,0.70029 1.44946,0.42868 10.42121,0.46887 10.42121,0.0467 0,-0.1817 0.14917,-0.23817 0.33149,-0.12549 0.4389,0.27126 3.2415,-0.59867 3.2415,-1.00616 0,-0.17486 0.26797,-0.21509 0.5955,-0.0894 0.32752,0.12568 0.59549,0.0364 0.59549,-0.1985 0,-0.23486 0.26798,-0.32418 0.5955,-0.1985 0.32752,0.12568 0.5955,0.0364 0.5955,-0.1985 0,-0.23486 0.26797,-0.32418 0.5955,-0.1985 0.32752,0.12568 0.59549,0.069 0.59549,-0.12589 0,-0.39191 0.2353,-0.42267 3.99983,-0.52297 2.49619,-0.0665 5.67734,0.51293 6.52063,1.18773 0.62546,0.50049 4.47077,1.55207 4.72947,1.29337 0.12816,-0.12816 0.23302,-0.0579 0.23302,0.15614 0,0.43857 8.50298,0.50352 8.9382,0.0683 0.14872,-0.14871 0.5209,-0.17426 0.82707,-0.0568 0.30618,0.11749 0.55669,0.0261 0.55669,-0.20306 0,-0.22917 0.3573,-0.34787 0.79399,-0.26377 0.4367,0.0841 0.794,0.0228 0.794,-0.13622 0,-0.15903 0.31264,-0.32013 0.69475,-0.35802 1.55025,-0.15372 3.27524,-0.60446 3.27524,-0.85583 0,-0.1471 0.31263,-0.30036 0.69474,-0.34058 5.16104,-0.54323 7.73219,-0.66846 7.90729,-0.38514 0.11673,0.18888 0.46215,0.24753 0.76759,0.13032 0.30544,-0.1172 0.55534,-0.0401 0.55534,0.17144 0,0.21149 0.34675,0.38454 0.77057,0.38454 0.42381,0 0.8885,0.19082 1.03265,0.42406 0.14415,0.23323 0.51199,0.32817 0.81743,0.21096 0.30544,-0.11721 0.55534,-0.0753 0.55534,0.093 0,0.46948 4.05484,1.82336 6.05423,2.02145 0.16376,0.0162 0.29774,2.18384 0.29774,4.81692 0,2.63307 -0.14934,4.69511 -0.33187,4.5823 -0.18252,-0.11281 -0.99537,-0.24979 -1.80633,-0.3044 -0.81095,-0.0546 -1.66606,-0.33016 -1.90023,-0.61232 -0.23417,-0.28217 -0.61546,-0.51302 -0.84732,-0.51302 -0.23185,0 -1.2337,-0.39317 -2.22635,-0.8737 -2.05943,-0.99695 -8.20893,-1.54535 -10.55433,-0.94121 -3.8002,0.97889 -7.96445,2.34195 -8.07313,2.64254 -0.0732,0.20257 -0.29655,0.26733 -0.49625,0.14391 -0.19969,-0.12343 -0.5522,-0.10752 -0.78335,0.0353 -0.4751,0.29363 -6.20912,0.3462 -7.12271,0.0653 -2.32066,-0.71352 -3.75122,-1.00888 -4.03549,-0.83319 -0.18232,0.11268 -0.33149,-0.003 -0.33149,-0.25803 0,-0.25459 -0.26798,-0.36007 -0.5955,-0.23439 -0.32752,0.12569 -0.5955,0.0748 -0.5955,-0.11298 0,-0.38247 -1.81126,-0.97915 -2.87824,-0.94818 -0.38211,0.0111 -0.69474,-0.12708 -0.69474,-0.30707 0,-0.17998 -1.69717,-0.32723 -3.77149,-0.32723 -2.07432,0 -3.77149,0.16492 -3.77149,0.36649 0,0.20157 -0.26797,0.26366 -0.59549,0.13798 -0.33725,-0.12941 -0.5955,-0.009 -0.5955,0.27712 0,0.27811 -0.10572,0.39992 -0.23494,0.2707 -0.25027,-0.25027 -3.58197,1.06934 -4.38732,1.73772 -0.55468,0.46035 -10.86083,0.69818 -10.86074,0.25063 3e-5,-0.16376 -0.16613,-0.29775 -0.36924,-0.29775 -0.20312,0 -1.58765,-0.57459 -3.07674,-1.27688 -2.44012,-1.15081 -3.12882,-1.28862 -6.975175,-1.39573 -2.852033,-0.0794 -4.267734,0.0227 -4.267734,0.30782 0,0.23466 -0.168776,0.32235 -0.375056,0.19486 -0.206277,-0.12748 -1.590809,0.34289 -3.076739,1.04528 -2.352103,1.11184 -3.266738,1.30884 -7.068665,1.52251 -2.47532,0.13912 -4.579756,0.0869 -4.858176,-0.12063 -0.270156,-0.20133 -0.761442,-0.26235 -1.091746,-0.1356 -0.330305,0.12675 -0.600554,0.0574 -0.600554,-0.15409 0,-0.21149 -0.223312,-0.38564 -0.496248,-0.38698 -0.272937,-0.001 -1.014114,-0.27252 -1.64706,-0.6026 -0.632947,-0.33008 -1.243722,-0.50724 -1.357278,-0.39369 -0.113556,0.11356 -0.545953,-0.10076 -0.960883,-0.47627 -0.60407,-0.54667 -1.619237,-0.69743 -5.093948,-0.75647 -2.386742,-0.0405 -4.339531,0.082 -4.339531,0.27241 0,0.19038 -0.267974,0.24332 -0.595498,0.11764 -0.327524,-0.12569 -0.595498,-0.0688 -0.595498,0.12647 0,0.19525 -0.377289,0.38341 -0.838421,0.41815 -0.461131,0.0347 -1.145564,0.34112 -1.520961,0.68085 -0.375397,0.33973 -0.785428,0.5148 -0.911179,0.38905 -0.125751,-0.12575 -0.758539,0.0454 -1.406194,0.3803 -0.647656,0.33491 -1.289531,0.49696 -1.426388,0.3601 -0.136858,-0.13686 -0.248833,-0.046 -0.248833,0.20188 0,0.24788 -0.259419,0.35115 -0.576487,0.22948 -0.317067,-0.12167 -0.790799,-0.0888 -1.052736,0.0731 -0.439249,0.27147 -3.084801,0.49836 -3.174696,0.27227 z"
     id="path3000"
     inkscape:connector-curvature="0" />
</svg>
