<?xml version="1.0" encoding="UTF-8" standalone="no"?>
<!-- Created with Inkscape (http://www.inkscape.org/) -->

<svg
   xmlns:dc="http://purl.org/dc/elements/1.1/"
   xmlns:cc="http://creativecommons.org/ns#"
   xmlns:rdf="http://www.w3.org/1999/02/22-rdf-syntax-ns#"
   xmlns:svg="http://www.w3.org/2000/svg"
   xmlns="http://www.w3.org/2000/svg"
   xmlns:sodipodi="http://sodipodi.sourceforge.net/DTD/sodipodi-0.dtd"
   xmlns:inkscape="http://www.inkscape.org/namespaces/inkscape"
   width="687.40155"
   height="159.44882"
   id="svg3010"
   version="1.1"
   inkscape:version="0.48.4 r9939"
   sodipodi:docname="logo-tourisme07.svg">
  <defs
     id="defs3" />
  <sodipodi:namedview
     inkscape:document-units="mm"
     id="base"
     pagecolor="#ffffff"
     bordercolor="#666666"
     borderopacity="1.0"
     inkscape:pageopacity="0.0"
     inkscape:pageshadow="2"
     inkscape:zoom="0.49497475"
     inkscape:cx="580.78092"
     inkscape:cy="352.89196"
     inkscape:current-layer="layer1"
     showgrid="true"
     inkscape:window-width="1551"
     inkscape:window-height="876"
     inkscape:window-x="49"
     inkscape:window-y="24"
     inkscape:window-maximized="1"
     showguides="true"
     inkscape:guide-bbox="true"
     units="mm">
    <sodipodi:guide
       orientation="0,1"
       position="236.3757,939.44187"
       id="guide2995" />
    <sodipodi:guide
       orientation="0,1"
       position="335.37065,897.01546"
       id="guide2997" />
    <sodipodi:guide
       orientation="0,1"
       position="15.152288,919.23882"
       id="guide2999" />
  </sodipodi:namedview>
  <metadata
     id="metadata4">
    <rdf:RDF>
      <cc:Work
         rdf:about="">
        <dc:format>image/svg+xml</dc:format>
        <dc:type
           rdf:resource="http://purl.org/dc/dcmitype/StillImage" />
        <dc:title />
      </cc:Work>
    </rdf:RDF>
  </metadata>
  <g
     inkscape:label="Layer 1"
     inkscape:groupmode="layer"
     id="layer1"
     transform="translate(0,-892.91372)">
    <path
       style="fill:#ff6600;stroke:none"
       d="m 5.4601727,940.42186 c 7.0143583,13.86697 18.5235623,36.71691 15.3018973,50.50645 6.27533,-2.72844 54.668864,-0.2282 71.318644,0.0902 -2.56945,-6.01688 2.7476,-10.53311 9.585726,-7.86861 0.52854,-14.35897 0.9619,-57.12285 4.04987,-61.2325 -16.137576,1.85959 -39.251537,-6.13264 -57.091757,-16.9278 3.950401,6.20622 13.522808,34.08528 4.564186,41.43911 -8.958656,7.35388 -39.38541,-1.71054 -47.7285663,-6.00688 z m 6.4360043,5.96141 c 9.564727,3.3571 30.411781,3.99024 20.536468,14.58738 -9.875363,10.59711 -16.235539,-6.59805 -20.536468,-14.58738 z M 54.504225,911.4077 c 8.905917,4.20925 28.244359,10.75095 15.513509,18.71054 C 57.286862,938.07782 57.789409,919.9195 54.504225,911.4077 z m 0.222717,37.59281 c 13.600107,-11.19421 29.295932,-20.48367 42.540392,-23.81517 -7.76235,2.32438 -42.694626,13.87503 -7.26706,56.09218 -44.66833,-34.32036 -62.545492,-1.89975 -66.086237,5.05425 4.233072,-11.34119 16.335396,-25.41488 30.812905,-37.33126 z m -13.810631,24.17148 c 6.908036,-4.70144 19.075968,-5.96663 23.175567,-3.0325 4.099572,2.93412 -0.457495,4.97734 -6.105324,7.43286 5.70948,-11.34946 -13.655138,-8.77783 -9.401718,-0.12493 -3.144945,-1.02233 -6.001965,-2.73603 -7.668525,-4.27538 z m 43.242253,-35.49615 c 1.66656,1.53932 3.46284,4.12373 4.44958,6.91772 -9.66931,-4.20715 -13.75863,12.47377 -0.41067,8.17963 -3.1479,4.76459 -5.75883,8.60537 -8.88105,4.86897 -3.12232,-3.73636 -0.95485,-14.23862 4.84214,-19.96632 z m -52.957455,55.22298 c -5.52607,15.92338 6.003122,53.42678 41.688595,50.30008 17.84274,-1.5632 45.869236,-11.3902 62.939966,-43.57417 17.07062,-32.18386 2.77795,-74.17717 26.17756,-101.86506 -37.14451,17.40759 -28.70685,55.4851 -56.45891,75.6008 0.44702,7.80314 0.16307,14.26876 0.59642,21.98235 -9.463356,-0.3686 -18.836496,-0.92069 -27.803096,-0.92632 -0.45092,3.27756 -3.16893,4.17471 -5.11841,4.07897 -2.25119,-0.0902 -4.112714,-1.95227 -3.896688,-4.31014 -7.749851,-0.90683 -33.273152,-1.63541 -38.1254,-1.28654 z M 148.9794,918.5405 c -12.48733,35.93661 0.66712,55.57317 -24.92595,92.7328 -14.64162,21.2588 -58.316757,42.5376 -82.242867,14.2303 30.921651,13.2245 25.753205,6.259 15.598017,0.8959 13.590184,3.7889 29.149854,7.206 11.966041,-1.728 10.684193,3.2699 16.518913,2.7968 9.253473,-1.6774 59.868426,11.3003 59.233226,-89.99887 70.351286,-104.45361 z m -53.994346,66.70228 c -1.9664,1.6999 -2.25285,4.84856 -0.58338,6.39058 2.20474,0.9313 7.735816,1.0167 8.851796,1.0429 0.0934,-1.01887 -0.25413,-5.96109 -0.82456,-7.29171 -1.82488,-1.58572 -5.477326,-1.84169 -7.443856,-0.14177 z"
       id="path3858"
       inkscape:connector-curvature="0"
       inkscape:transform-center-x="-19.536649"
       inkscape:transform-center-y="6.590926" />
    <flowRoot
       xml:space="preserve"
       id="flowRoot3023"
       style="font-size:40px;font-style:normal;font-weight:normal;line-height:125%;letter-spacing:0px;word-spacing:0px;fill:#000000;fill-opacity:1;stroke:none;font-family:Sans"><flowRegion
         id="flowRegion3025"><rect
           id="rect3027"
           width="436.42856"
           height="164.28572"
           x="277.85715"
           y="72.362183" /></flowRegion><flowPara
         id="flowPara3029" /></flowRoot>    <g
       transform="matrix(0.99872943,0,0,1.0012722,-30.304576,852.56875)"
       style="font-size:74.31973267px;font-style:normal;font-variant:normal;font-weight:bold;font-stretch:normal;text-align:start;line-height:125%;letter-spacing:0px;word-spacing:0px;writing-mode:lr-tb;text-anchor:start;fill:#000000;fill-opacity:1;stroke:none;font-family:Purisa;-inkscape-font-specification:Purisa Bold"
       id="text3031">
      <path
         d="m 197.83841,109.08445 c -1e-5,-2.9232 0.39636,-5.02892 1.18911,-6.31718 0.79274,-1.3377 1.68457,-2.00658 2.67551,-2.00663 0.39637,5e-5 1.23865,-0.322 2.52687,-0.966158 1.33775,-0.64405 2.82414,-1.3377 4.45919,-2.080952 1.68456,-0.792688 3.98847,-1.511111 6.91173,-2.155273 2.97277,-0.644045 6.11896,-0.966097 9.43861,-0.966156 5.20234,5.9e-5 7.80353,0.990988 7.80357,2.972789 -4e-5,1.33781 -2.67555,2.403058 -8.02653,3.19575 -4.31057,0.64416 -8.24951,1.53599 -11.81684,2.67551 -3.56736,1.13962 -5.92082,2.20487 -7.06037,3.19575 -0.64412,0.5946 -0.96617,1.38734 -0.96616,2.37823 -10e-6,0.0991 0.12385,1.36257 0.3716,3.79031 0.24772,2.42781 0.52022,4.95468 0.81752,7.58061 0.29726,2.62599 0.49545,4.11239 0.59455,4.45918 1.23865,-0.54498 4.3353,-1.33772 9.28997,-2.37823 5.00417,-1.04044 8.44765,-1.56068 10.33044,-1.56071 1.04045,3e-5 1.80842,0.27253 2.30392,0.81751 0.49542,0.54505 0.74316,1.1396 0.74319,1.78368 -3e-5,0.79277 -0.29731,1.43687 -0.89183,1.93231 -1.13961,1.09005 -4.78127,2.32871 -10.925,3.71599 -6.14379,1.33777 -9.51295,2.18006 -10.10749,2.52687 -0.29729,0.19821 -0.44593,0.52026 -0.44592,0.96615 -1e-5,3.61691 0.0495,6.5897 0.14864,8.91837 l 0.22296,5.2767 3.12143,0 c 2.32867,1e-5 5.30145,-0.44591 8.91837,-1.33775 3.61686,-0.89183 6.61442,-1.93231 8.99269,-3.12143 1.68454,-0.94137 2.84888,-1.41206 3.49302,-1.41208 0.84225,2e-5 1.58545,0.39639 2.2296,1.18912 0.6936,0.79275 1.04043,1.56072 1.04047,2.30391 -4e-5,1.53595 -1.51121,3.09666 -4.5335,4.68214 -2.97283,1.5855 -6.5154,2.84893 -10.62772,3.79031 -4.06284,0.94138 -7.75405,1.41208 -11.07364,1.41208 -3.91419,0 -6.29242,-0.71843 -7.1347,-2.15528 -0.54502,-0.94138 -0.96616,-3.0471 -1.26343,-6.31717 -0.29729,-3.27006 -0.64412,-7.97697 -1.04048,-14.12075 -0.34683,-6.19329 -0.7432,-11.51953 -1.18912,-15.97875 -0.34683,-4.16186 -0.52024,-6.39145 -0.52023,-6.68877"
         style="line-height:125%;font-family:Purisa;-inkscape-font-specification:Purisa Bold"
         id="path2997"
         inkscape:connector-curvature="0" />
      <path
         d="m 246.06146,148.54823 c -1e-5,-0.84229 0.22295,-1.56071 0.66888,-2.15528 0.44591,-0.64409 0.99092,-0.96614 1.63503,-0.96615 1.23866,1e-5 2.32868,0.86707 3.27007,2.60119 0.545,1.04048 1.73411,2.03141 3.56735,2.97279 1.8332,0.89184 3.54255,1.33775 5.12806,1.33775 1.98184,0 3.79028,-1.09002 5.42534,-3.27007 1.68455,-2.22958 2.52684,-3.93893 2.52687,-5.12806 -3e-5,-0.19817 -0.0743,-0.47068 -0.22296,-0.81751 -0.14867,-0.39636 -0.56981,-0.9166 -1.26343,-1.56072 -0.64413,-0.64409 -1.48642,-1.11478 -2.52687,-1.41207 -1.68461,-0.49545 -3.51783,-1.11478 -5.49966,-1.858 -1.98188,-0.79272 -3.4435,-1.28819 -4.38487,-1.48639 -1.48641,-0.29726 -3.44349,-1.33774 -5.87126,-3.12143 -2.42778,-1.78365 -3.64167,-3.66642 -3.64166,-5.6483 -1e-5,-1.98183 1.41206,-4.53347 4.23622,-7.65493 2.82414,-3.12139 6.31716,-5.12803 10.47908,-6.0199 l 7.43198,-0.66888 c 1.33772,4e-5 2.35342,0.17345 3.0471,0.52024 0.69362,0.29732 1.56069,1.04051 2.6012,2.22959 1.68454,1.93235 2.52683,3.34442 2.52687,4.23623 -4e-5,1.23869 -0.64414,1.85802 -1.93232,1.85799 -1.09005,3e-5 -2.20485,-0.56975 -3.34438,-1.70935 -1.09006,-1.18909 -2.45258,-1.78364 -4.08759,-1.78368 -2.22962,4e-5 -4.5583,0.64414 -6.98605,1.93232 -2.37825,1.23869 -4.26102,2.55167 -5.6483,3.93894 -1.38732,1.33778 -2.08097,2.30394 -2.08096,2.89847 -10e-6,0.3964 0.2725,0.86709 0.81752,1.41208 0.59455,0.49549 1.5607,1.09004 2.89847,1.78367 1.38728,0.69367 3.02232,1.313 4.9051,1.85799 5.20236,1.53596 8.79447,3.04713 10.77636,4.53351 1.98183,1.48641 2.97276,3.56736 2.97279,6.24285 -3e-5,2.3287 -0.42118,4.43442 -1.26343,6.31718 -0.69369,1.63504 -2.05621,3.31962 -4.08759,5.05374 -2.03143,1.78367 -4.11238,2.67551 -6.24286,2.67551 -1.53596,0 -3.54259,-0.22296 -6.01989,-0.66887 -2.4278,-0.39638 -4.31056,-0.89184 -5.6483,-1.4864 -1.09004,-0.54501 -2.05619,-1.51117 -2.89847,-2.89847 -0.8423,-1.43684 -1.26345,-2.79937 -1.26344,-4.08758"
         style="line-height:125%;font-family:Purisa;-inkscape-font-specification:Purisa Bold"
         id="path2999"
         inkscape:connector-curvature="0" />
      <path
         d="m 321.71314,134.35316 c 1.18907,2e-5 1.78363,0.76799 1.78367,2.30391 -4e-5,1.18913 -1.2387,3.31963 -3.71598,6.3915 -2.47737,3.02234 -4.63264,5.15284 -6.46582,6.39149 -4.40967,2.92325 -8.37338,4.38487 -11.89116,4.38487 -2.57643,0 -5.35104,-0.66888 -8.32381,-2.00663 -3.02234,-1.33776 -5.20239,-3.1462 -6.54014,-5.42535 -1.33776,-2.32867 -2.15527,-5.67306 -2.45255,-10.03316 0,-0.4459 -0.0496,-1.09 -0.14864,-1.93231 -0.0496,-0.89182 -0.0743,-1.53592 -0.0743,-1.93232 0,-3.81505 1.95709,-7.72922 5.87126,-11.74251 3.96371,-4.06278 7.50628,-6.46578 10.62772,-7.20902 1.38729,-0.34678 3.19573,-0.52019 5.42535,-0.52024 4.26096,5e-5 7.97695,1.28825 11.14796,3.86463 3.17093,2.57645 4.75642,5.20241 4.75646,7.87789 -4e-5,0.89187 -0.27255,1.73416 -0.81752,2.52687 -0.4955,0.79277 -1.16438,1.18914 -2.00663,1.18912 -0.19823,2e-5 -0.42118,-0.0247 -0.66888,-0.0743 -0.24777,-0.0495 -0.64414,-0.32203 -1.18911,-0.81752 -0.49551,-0.49544 -0.79278,-1.18909 -0.89184,-2.08095 -0.0496,-0.3468 -0.34686,-0.94135 -0.89184,-1.78367 -0.4955,-0.84226 -0.99096,-1.51114 -1.48639,-2.00664 -0.59459,-0.64407 -1.06529,-1.08999 -1.41208,-1.33775 -0.29731,-0.2477 -1.18914,-0.52021 -2.67551,-0.81752 -1.48642,-0.34679 -3.49305,-0.5202 -6.0199,-0.52024 -1.88278,4e-5 -3.29486,0.29732 -4.23622,0.89184 -0.9414,0.54504 -2.15529,1.75893 -3.64167,3.64167 -3.716,4.60785 -5.57399,8.7202 -5.57398,12.33707 -1e-5,1.88278 0.24772,3.46827 0.7432,4.75647 0.49545,1.23867 0.9166,2.03141 1.26343,2.37823 0.34682,0.34683 1.04047,0.94139 2.08096,1.78367 1.38728,1.18912 2.45253,1.95709 3.19575,2.30391 0.74317,0.29729 1.78365,0.44593 3.12142,0.44592 4.26098,1e-5 9.04221,-2.82414 14.34371,-8.47245 2.97275,-3.17096 5.22712,-4.75644 6.7631,-4.75646"
         style="line-height:125%;font-family:Purisa;-inkscape-font-specification:Purisa Bold"
         id="path3001"
         inkscape:connector-curvature="0" />
      <path
         d="m 353.52896,144.98088 c -3e-5,-0.59455 0.81749,-1.58548 2.45255,-2.97279 1.635,-1.38729 2.47729,-2.27912 2.52687,-2.67551 -3e-5,-0.19817 -0.14867,-0.47068 -0.44592,-0.81752 -0.29731,-0.34681 -1.09005,-0.74318 -2.37823,-1.18911 -1.23869,-0.4459 -2.87372,-0.66886 -4.9051,-0.66888 -2.18007,2e-5 -4.08761,0.32207 -5.72262,0.96616 -1.5855,0.64412 -2.77462,1.43686 -3.56735,2.37823 -0.79275,0.94139 -1.36254,1.80846 -1.70935,2.60119 -0.34684,0.79275 -0.52025,1.4864 -0.52024,2.08095 -10e-6,0.99094 0.0743,1.63504 0.22296,1.93231 0.19817,0.24774 0.66886,0.54502 1.41208,0.89184 1.09,0.44592 2.00661,0.66888 2.74983,0.66888 1.09,0 2.45253,-0.2725 4.08758,-0.81752 1.63501,-0.545 3.02231,-1.06524 4.16191,-1.56071 l 1.63503,-0.81752 m 13.37755,4.75646 c -0.0991,1.13957 -0.54505,2.1305 -1.33775,2.97279 -0.74324,0.79275 -1.36257,1.18912 -1.858,1.18912 -0.29731,0 -0.59459,-0.0495 -0.89183,-0.14864 -0.24777,-0.0991 -0.4955,-0.27251 -0.7432,-0.52024 -0.19822,-0.29728 -0.39641,-0.54501 -0.59456,-0.7432 -0.14867,-0.24773 -0.29731,-0.59455 -0.44592,-1.04047 -0.0991,-0.44592 -0.19822,-0.79274 -0.29728,-1.04048 -0.0991,-0.29728 -0.19822,-0.71842 -0.29727,-1.26344 -0.0991,-0.545 -0.17345,-0.94137 -0.22296,-1.18911 -4e-5,-0.24773 -0.0496,-0.6441 -0.14864,-1.18912 -0.0991,-0.545 -0.14868,-0.89183 -0.14864,-1.04047 -1.58552,1.83322 -3.93898,3.61689 -7.06038,5.35102 -3.0719,1.68458 -5.69786,2.52687 -7.87789,2.52687 -1.38732,0 -3.04712,-0.22296 -4.97942,-0.66888 -1.93233,-0.44592 -3.3444,-0.99093 -4.23623,-1.63503 -1.53594,-1.13957 -2.30391,-3.56734 -2.30391,-7.28334 0,-2.18003 0.61933,-4.0628 1.858,-5.6483 1.23865,-1.58547 3.46824,-3.17095 6.68877,-4.75646 3.61688,-1.8332 7.01081,-2.74981 10.18181,-2.74983 1.38727,2e-5 2.52684,0.17344 3.4187,0.52024 0.94136,0.34685 1.65978,0.76799 2.15528,1.26343 0.54497,0.44594 0.84225,0.6689 0.89183,0.66888 0.79271,0.14866 1.48636,0.47071 2.08095,0.96616 -3e-5,-3.27005 -0.14867,-5.9951 -0.44591,-8.17517 -0.24777,-2.22956 -0.61937,-3.8646 -1.1148,-4.9051 -0.4955,-1.04045 -0.99096,-1.75887 -1.48639,-2.15528 -0.4955,-0.39633 -1.09006,-0.59452 -1.78368,-0.59455 -2.37826,3e-5 -4.95467,0.47072 -7.72925,1.41207 -2.72508,0.94142 -5.2024,1.90757 -7.43197,2.89847 -2.18006,0.94141 -3.76555,1.4121 -4.75647,1.41207 -1.23867,3e-5 -1.858,-0.56975 -1.85799,-1.70935 -10e-6,-0.69362 0.14863,-1.31295 0.44592,-1.85799 0.29727,-0.59453 0.64409,-1.08999 1.04047,-1.4864 0.44591,-0.39633 1.11479,-0.79271 2.00664,-1.18911 0.94137,-0.44589 1.78366,-0.79271 2.52687,-1.04048 0.79273,-0.29724 1.9323,-0.69361 3.41871,-1.18912 1.48637,-0.54497 2.77458,-1.01566 3.86462,-1.41207 2.97277,-1.04044 5.57396,-1.56067 7.80357,-1.56071 4.01324,4e-5 7.0108,1.8828 8.99269,5.6483 0.8918,1.68461 1.41204,3.22055 1.56072,4.60782 0.19814,1.38733 0.34678,5.42536 0.44591,12.11412 0.0991,6.29241 0.32202,11.17274 0.66888,14.64098"
         style="line-height:125%;font-family:Purisa;-inkscape-font-specification:Purisa Bold"
         id="path3003"
         inkscape:connector-curvature="0" />
      <path
         d="m 376.07919,122.38768 c 0,-0.94135 0.69365,-2.0066 2.08096,-3.19575 1.38729,-1.18908 2.08094,-2.10569 2.08095,-2.74983 -1e-5,-1.08998 0.34682,-2.37819 1.04048,-3.86462 0.69364,-1.48636 1.78366,-2.22955 3.27006,-2.2296 0.99092,5e-5 1.78366,0.39642 2.37824,1.18912 0.64408,0.74324 1.09,1.11484 1.33775,1.1148 0.4459,4e-5 2.37821,-0.37156 5.79694,-1.1148 3.41868,-0.7927 6.49056,-1.18907 9.21565,-1.18912 2.2791,5e-5 4.7812,0.27255 7.50629,0.81752 5.74735,1.2387 8.62104,4.63264 8.62109,10.1818 -5e-5,4.21148 -1.56076,9.46341 -4.68214,15.75579 -2.13054,4.3601 -4.8556,7.72926 -8.17518,10.10748 -3.31964,2.37824 -6.88699,3.56735 -10.70204,3.56735 -0.99095,0 -1.80847,-0.0495 -2.45255,-0.14864 l -2.22959,-0.29728 0.59456,2.52687 c 1.93229,8.12562 2.89844,13.40231 2.89847,15.8301 -3e-5,2.13049 -1.11482,3.19573 -3.34439,3.19575 -1.43687,-2e-5 -2.50212,-0.42116 -3.19575,-1.26343 -0.89185,-1.13959 -1.93233,-4.60784 -3.12143,-10.40477 -1.13958,-5.74739 -2.13051,-13.17935 -2.97279,-22.29591 -0.29729,-3.17096 -0.54502,-5.62351 -0.74319,-7.35766 -0.14865,-1.78365 -0.32207,-3.09663 -0.52024,-3.93894 -0.1982,-0.89181 -0.37161,-1.43682 -0.52024,-1.63504 -0.14865,-0.19816 -0.37161,-0.29725 -0.66888,-0.29728 -2.32869,3e-5 -3.49303,-0.76794 -3.49303,-2.30391 m 34.11276,-4.31054 c -0.59459,-0.29725 -2.05621,-0.44589 -4.38486,-0.44592 -4.80604,3e-5 -9.09181,0.54504 -12.85732,1.63503 l -4.68214,1.41208 0.14864,4.08758 c 0.14862,3.76556 0.4459,7.8036 0.89184,12.11412 0.49544,4.31056 0.94136,6.46583 1.33775,6.46582 0.99091,10e-6 2.03139,0.32206 3.12143,0.96615 1.09,0.59457 1.88274,0.89185 2.37823,0.89184 1.88274,10e-6 4.11233,-1.21388 6.68878,-3.64167 2.62593,-2.42776 4.88029,-5.37577 6.76309,-8.84405 1.88273,-3.51777 2.82411,-6.61443 2.82415,-9.28996 -4e-5,-0.9909 -0.17345,-1.90751 -0.52023,-2.74983 -0.34687,-0.89181 -0.69369,-1.51114 -1.04048,-1.858 -0.29732,-0.39633 -0.52028,-0.64407 -0.66888,-0.74319"
         style="line-height:125%;font-family:Purisa;-inkscape-font-specification:Purisa Bold"
         id="path3005"
         inkscape:connector-curvature="0" />
      <path
         d="m 451.21876,144.98088 c -2e-5,-0.59455 0.81749,-1.58548 2.45256,-2.97279 1.635,-1.38729 2.47729,-2.27912 2.52687,-2.67551 -4e-5,-0.19817 -0.14867,-0.47068 -0.44592,-0.81752 -0.29731,-0.34681 -1.09006,-0.74318 -2.37823,-1.18911 -1.23869,-0.4459 -2.87373,-0.66886 -4.90511,-0.66888 -2.18006,2e-5 -4.0876,0.32207 -5.72261,0.96616 -1.58551,0.64412 -2.77462,1.43686 -3.56735,2.37823 -0.79276,0.94139 -1.36254,1.80846 -1.70936,2.60119 -0.34683,0.79275 -0.52025,1.4864 -0.52023,2.08095 -2e-5,0.99094 0.0743,1.63504 0.22296,1.93231 0.19817,0.24774 0.66886,0.54502 1.41207,0.89184 1.09001,0.44592 2.00662,0.66888 2.74983,0.66888 1.09,0 2.45253,-0.2725 4.08759,-0.81752 1.63501,-0.545 3.02231,-1.06524 4.1619,-1.56071 l 1.63503,-0.81752 m 13.37756,4.75646 c -0.0991,1.13957 -0.54505,2.1305 -1.33776,2.97279 -0.74323,0.79275 -1.36256,1.18912 -1.85799,1.18912 -0.29732,0 -0.5946,-0.0495 -0.89184,-0.14864 -0.24777,-0.0991 -0.4955,-0.27251 -0.7432,-0.52024 -0.19822,-0.29728 -0.3964,-0.54501 -0.59455,-0.7432 -0.14868,-0.24773 -0.29732,-0.59455 -0.44592,-1.04047 -0.0991,-0.44592 -0.19822,-0.79274 -0.29728,-1.04048 -0.0991,-0.29728 -0.19822,-0.71842 -0.29728,-1.26344 -0.0991,-0.545 -0.17345,-0.94137 -0.22296,-1.18911 -3e-5,-0.24773 -0.0496,-0.6441 -0.14864,-1.18912 -0.0991,-0.545 -0.14867,-0.89183 -0.14864,-1.04047 -1.58552,1.83322 -3.93897,3.61689 -7.06037,5.35102 -3.07191,1.68458 -5.69787,2.52687 -7.87789,2.52687 -1.38732,0 -3.04713,-0.22296 -4.97943,-0.66888 -1.93232,-0.44592 -3.34439,-0.99093 -4.23622,-1.63503 -1.53595,-1.13957 -2.30392,-3.56734 -2.30391,-7.28334 -1e-5,-2.18003 0.61932,-4.0628 1.85799,-5.6483 1.23865,-1.58547 3.46824,-3.17095 6.68878,-4.75646 3.61687,-1.8332 7.0108,-2.74981 10.1818,-2.74983 1.38727,2e-5 2.52684,0.17344 3.41871,0.52024 0.94135,0.34685 1.65977,0.76799 2.15527,1.26343 0.54498,0.44594 0.84226,0.6689 0.89184,0.66888 0.79271,0.14866 1.48636,0.47071 2.08095,0.96616 -4e-5,-3.27005 -0.14867,-5.9951 -0.44592,-8.17517 -0.24777,-2.22956 -0.61936,-3.8646 -1.1148,-4.9051 -0.49549,-1.04045 -0.99096,-1.75887 -1.48639,-2.15528 -0.4955,-0.39633 -1.09005,-0.59452 -1.78367,-0.59455 -2.37826,3e-5 -4.95468,0.47072 -7.72926,1.41207 -2.72507,0.94142 -5.20239,1.90757 -7.43197,2.89847 -2.18006,0.94141 -3.76554,1.4121 -4.75646,1.41207 -1.23867,3e-5 -1.858,-0.56975 -1.858,-1.70935 0,-0.69362 0.14864,-1.31295 0.44592,-1.85799 0.29727,-0.59453 0.6441,-1.08999 1.04048,-1.4864 0.44591,-0.39633 1.11478,-0.79271 2.00663,-1.18911 0.94137,-0.44589 1.78366,-0.79271 2.52687,-1.04048 0.79273,-0.29724 1.9323,-0.69361 3.41871,-1.18912 1.48638,-0.54497 2.77458,-1.01566 3.86463,-1.41207 2.97276,-1.04044 5.57395,-1.56067 7.80357,-1.56071 4.01323,4e-5 7.01079,1.8828 8.99269,5.6483 0.89179,1.68461 1.41203,3.22055 1.56071,4.60782 0.19815,1.38733 0.34679,5.42536 0.44592,12.11412 0.0991,6.29241 0.32201,11.17274 0.66888,14.64098"
         style="line-height:125%;font-family:Purisa;-inkscape-font-specification:Purisa Bold"
         id="path3007"
         inkscape:connector-curvature="0" />
      <path
         d="m 502.97667,117.25962 c 0.94135,4e-5 1.75886,0.22299 2.45255,0.66888 0.69361,0.3964 1.13953,0.79278 1.33775,1.18911 0.2477,0.39641 0.37157,0.74323 0.3716,1.04048 -3e-5,0.99096 -1.1396,1.90757 -3.4187,2.74983 -3.02237,1.1396 -6.31721,3.93897 -9.88453,8.39813 -3.51782,4.4592 -5.64832,8.64587 -6.3915,12.56003 -0.9414,5.0042 -1.73414,8.32382 -2.37823,9.95885 -0.64412,1.68458 -1.5855,2.52687 -2.82415,2.52687 -0.49547,0 -0.94139,-0.0743 -1.33775,-0.22296 -0.34684,-0.0991 -0.64412,-0.32205 -0.89184,-0.66888 -0.24774,-0.34683 -0.44593,-0.6441 -0.59456,-0.89183 -0.14865,-0.24774 -0.29729,-0.64411 -0.44592,-1.18912 -0.0991,-0.59456 -0.17342,-1.0157 -0.22295,-1.26344 -1e-5,-0.29727 -0.0496,-0.76796 -0.14864,-1.41207 -0.0496,-0.69365 -0.0743,-1.11479 -0.0743,-1.26344 -1.18913,-11.59386 -1.78368,-21.32973 -1.78368,-29.20765 0,-1.635 0.0991,-2.89843 0.29728,-3.79031 0.19818,-0.94134 0.69364,-1.75886 1.4864,-2.45255 0.49545,-0.44588 1.04046,-0.66884 1.63503,-0.66888 0.64409,4e-5 1.1891,0.27255 1.63503,0.81752 0.44591,0.4955 0.66887,1.16438 0.66888,2.00663 -1e-5,1.83326 0.24772,4.43445 0.7432,7.80358 0.545,3.31964 1.04046,5.92082 1.48639,7.80357 0.39636,-0.54499 0.96614,-1.38728 1.70936,-2.52687 1.88275,-3.07186 4.50871,-5.82169 7.87789,-8.24949 3.36913,-2.47729 6.2676,-3.71595 8.69541,-3.71599"
         style="line-height:125%;font-family:Purisa;-inkscape-font-specification:Purisa Bold"
         id="path3009"
         inkscape:connector-curvature="0" />
      <path
         d="m 539.32828,144.98088 c -3e-5,-0.59455 0.81749,-1.58548 2.45255,-2.97279 1.635,-1.38729 2.47729,-2.27912 2.52687,-2.67551 -3e-5,-0.19817 -0.14867,-0.47068 -0.44592,-0.81752 -0.29731,-0.34681 -1.09005,-0.74318 -2.37823,-1.18911 -1.23869,-0.4459 -2.87372,-0.66886 -4.9051,-0.66888 -2.18007,2e-5 -4.08761,0.32207 -5.72262,0.96616 -1.58551,0.64412 -2.77462,1.43686 -3.56735,2.37823 -0.79276,0.94139 -1.36254,1.80846 -1.70935,2.60119 -0.34684,0.79275 -0.52025,1.4864 -0.52024,2.08095 -10e-6,0.99094 0.0743,1.63504 0.22296,1.93231 0.19817,0.24774 0.66886,0.54502 1.41207,0.89184 1.09001,0.44592 2.00662,0.66888 2.74983,0.66888 1.09001,0 2.45253,-0.2725 4.08759,-0.81752 1.63501,-0.545 3.02231,-1.06524 4.1619,-1.56071 l 1.63504,-0.81752 m 13.37755,4.75646 c -0.0991,1.13957 -0.54505,2.1305 -1.33776,2.97279 -0.74323,0.79275 -1.36256,1.18912 -1.85799,1.18912 -0.29732,0 -0.59459,-0.0495 -0.89184,-0.14864 -0.24777,-0.0991 -0.4955,-0.27251 -0.74319,-0.52024 -0.19823,-0.29728 -0.39641,-0.54501 -0.59456,-0.7432 -0.14868,-0.24773 -0.29732,-0.59455 -0.44592,-1.04047 -0.0991,-0.44592 -0.19822,-0.79274 -0.29728,-1.04048 -0.0991,-0.29728 -0.19822,-0.71842 -0.29728,-1.26344 -0.0991,-0.545 -0.17344,-0.94137 -0.22296,-1.18911 -3e-5,-0.24773 -0.0496,-0.6441 -0.14864,-1.18912 -0.0991,-0.545 -0.14867,-0.89183 -0.14864,-1.04047 -1.58552,1.83322 -3.93897,3.61689 -7.06037,5.35102 -3.07191,1.68458 -5.69787,2.52687 -7.87789,2.52687 -1.38732,0 -3.04713,-0.22296 -4.97942,-0.66888 -1.93233,-0.44592 -3.3444,-0.99093 -4.23623,-1.63503 -1.53595,-1.13957 -2.30392,-3.56734 -2.30391,-7.28334 -10e-6,-2.18003 0.61932,-4.0628 1.85799,-5.6483 1.23865,-1.58547 3.46824,-3.17095 6.68878,-4.75646 3.61687,-1.8332 7.0108,-2.74981 10.1818,-2.74983 1.38728,2e-5 2.52684,0.17344 3.41871,0.52024 0.94135,0.34685 1.65978,0.76799 2.15527,1.26343 0.54498,0.44594 0.84226,0.6689 0.89184,0.66888 0.79271,0.14866 1.48636,0.47071 2.08095,0.96616 -3e-5,-3.27005 -0.14867,-5.9951 -0.44592,-8.17517 -0.24776,-2.22956 -0.61936,-3.8646 -1.11479,-4.9051 -0.4955,-1.04045 -0.99096,-1.75887 -1.4864,-2.15528 -0.49549,-0.39633 -1.09005,-0.59452 -1.78367,-0.59455 -2.37826,3e-5 -4.95468,0.47072 -7.72925,1.41207 -2.72508,0.94142 -5.2024,1.90757 -7.43198,2.89847 -2.18005,0.94141 -3.76554,1.4121 -4.75646,1.41207 -1.23867,3e-5 -1.858,-0.56975 -1.85799,-1.70935 -10e-6,-0.69362 0.14863,-1.31295 0.44592,-1.85799 0.29727,-0.59453 0.64409,-1.08999 1.04047,-1.4864 0.44591,-0.39633 1.11479,-0.79271 2.00663,-1.18911 0.94138,-0.44589 1.78366,-0.79271 2.52687,-1.04048 0.79273,-0.29724 1.9323,-0.69361 3.41871,-1.18912 1.48638,-0.54497 2.77459,-1.01566 3.86463,-1.41207 2.97276,-1.04044 5.57395,-1.56067 7.80357,-1.56071 4.01323,4e-5 7.01079,1.8828 8.99269,5.6483 0.8918,1.68461 1.41203,3.22055 1.56071,4.60782 0.19815,1.38733 0.34679,5.42536 0.44592,12.11412 0.099,6.29241 0.32201,11.17274 0.66888,14.64098"
         style="line-height:125%;font-family:Purisa;-inkscape-font-specification:Purisa Bold"
         id="path3011"
         inkscape:connector-curvature="0" />
      <path
         d="m 566.78361,114.65843 c -10e-6,-2.57638 0.81751,-3.86458 2.45255,-3.86463 1.09001,0.0496 1.80844,0.71847 2.15528,2.00664 0.34681,1.28824 0.84227,4.90513 1.48639,10.85068 0.14863,1.33778 0.27249,2.37826 0.3716,3.12143 l 1.04048,8.47244 0.81751,-2.45255 c 1.04046,-3.22049 1.9323,-5.57395 2.67551,-7.06037 0.79273,-1.48637 2.22957,-3.59209 4.31055,-6.31718 4.01323,-5.30143 7.40717,-7.95217 10.1818,-7.95221 1.83318,4e-5 3.41867,1.01574 4.75646,3.04711 1.58545,2.22963 2.55161,4.45922 2.89847,6.68878 0.39633,2.22962 0.66884,7.3329 0.81752,15.30986 0.099,5.05375 0.1486,8.12563 0.14864,9.21565 -4e-5,3.27007 -0.223,5.49966 -0.66888,6.68877 -0.44596,1.13957 -1.36257,1.70936 -2.74983,1.70936 -0.94142,0 -1.56075,-0.24774 -1.85799,-0.7432 -0.29732,-0.54501 -0.44596,-1.61026 -0.44592,-3.19575 -4e-5,-0.74319 0.0495,-2.27913 0.14864,-4.60782 0.0991,-2.32868 0.1486,-4.26099 0.14864,-5.79694 -4e-5,-4.21144 -0.17345,-8.15038 -0.52024,-11.81684 -0.34686,-3.66641 -0.74323,-5.97032 -1.18911,-6.91173 -0.19823,-0.39634 -0.44596,-0.76794 -0.7432,-1.1148 -0.29732,-0.39634 -0.56982,-0.69362 -0.81752,-0.89184 -0.19822,-0.19815 -0.34686,-0.29724 -0.44592,-0.29728 -0.79277,4e-5 -2.42781,1.65984 -4.9051,4.97943 -2.4278,3.31964 -4.48398,6.71357 -6.16854,10.1818 -1.73415,3.66646 -2.89849,6.34196 -3.49302,8.02653 -0.54503,1.68459 -0.99095,3.96373 -1.33776,6.83742 -0.54503,4.60782 -0.99095,7.15946 -1.33775,7.65493 -0.24775,0.29727 -0.52026,0.44591 -0.81752,0.44592 -0.74321,-0.0991 -1.53596,-0.61934 -2.37823,-1.56072 -0.44594,-0.49546 -0.79276,-1.11479 -1.04048,-1.85799 -0.1982,-0.79274 -0.37161,-1.98186 -0.52024,-3.56735 -0.14865,-1.63503 -0.27252,-3.36915 -0.3716,-5.20238 -0.0991,-1.88276 -0.29729,-4.58304 -0.59455,-8.10085 -0.29729,-3.56733 -0.66889,-7.25854 -1.1148,-11.07364 -0.59457,-5.94554 -0.89185,-9.56243 -0.89184,-10.85068"
         style="line-height:125%;font-family:Purisa;-inkscape-font-specification:Purisa Bold"
         id="path3013"
         inkscape:connector-curvature="0" />
      <path
         d="m 639.38473,122.90792 c -2.87373,-1.68455 -4.83081,-2.52684 -5.87126,-2.52687 -0.69368,3e-5 -2.82418,1.46165 -6.3915,4.38486 -3.56736,2.92327 -5.72263,5.15286 -6.46582,6.68878 -0.44593,0.89186 -0.66889,2.79939 -0.66887,5.72262 -2e-5,3.31963 0.29726,5.4749 0.89183,6.46581 0.44591,0.69366 1.61025,1.48641 3.49303,2.37824 1.93229,0.89184 3.76551,1.33776 5.49966,1.33775 3.31959,1e-5 7.63013,-2.22958 12.93163,-6.68877 3.71595,-3.12142 5.77213,-5.27669 6.16854,-6.46582 -4e-5,-1.23864 -1.04052,-3.09663 -3.12143,-5.57398 -2.03144,-2.4773 -4.18671,-4.38484 -6.46581,-5.72262 m 10.77636,19.76905 c -0.0496,0.0496 -0.56983,0.59457 -1.56072,1.63503 -0.94142,0.99094 -2.00667,1.98187 -3.19575,2.97279 -1.1396,0.99094 -2.5269,2.05618 -4.1619,3.19575 -1.58552,1.13957 -3.44351,2.05618 -5.57398,2.74983 -2.13053,0.69365 -4.2858,1.04048 -6.46582,1.04048 -1.88278,0 -3.93896,-0.3716 -6.16854,-1.1148 -6.98606,-2.37823 -10.47908,-7.28333 -10.47908,-14.71531 0,-3.02231 0.52023,-5.89601 1.56072,-8.62109 1.09001,-2.77457 2.45254,-5.12803 4.08758,-7.06037 1.68457,-1.98183 3.49301,-3.69118 5.42534,-5.12806 1.98184,-1.43681 3.88938,-2.50206 5.72262,-3.19575 1.8332,-0.74316 3.41868,-1.11476 4.75646,-1.1148 1.53592,4e-5 3.98847,0.89188 7.35766,2.67551 3.36912,1.78371 5.74735,3.49307 7.13469,5.12807 0.7927,0.99096 1.38726,1.63506 1.78368,1.93231 0.19814,-1.7341 0.37155,-8.47241 0.52023,-20.21497 0.1486,-11.792001 0.47065,-18.282584 0.96616,-19.471769 0.7927,-1.932241 2.05613,-2.898396 3.79031,-2.898469 l 2.97279,0 -0.59456,31.511568 c -0.14869,7.18427 -0.22301,13.65008 -0.22296,19.39745 -5e-5,7.67972 0.17336,13.17937 0.52024,16.49898 0.34677,3.27007 0.52018,5.07851 0.52024,5.42534 -6e-5,1.04048 -0.27256,2.10572 -0.81752,3.19575 -0.54506,1.09002 -1.46167,1.63503 -2.74983,1.63503 -1.58554,0 -2.70033,-0.91661 -3.34439,-2.74983 -0.64415,-1.78367 -1.06529,-4.1619 -1.26344,-7.13469 -0.14868,-2.97278 -0.32209,-4.83077 -0.52023,-5.57398"
         style="line-height:125%;font-family:Purisa;-inkscape-font-specification:Purisa Bold"
         id="path3015"
         inkscape:connector-curvature="0" />
      <path
         d="m 676.21596,120.00945 c 4.16189,-3.56731 7.70446,-5.92077 10.62772,-7.06038 2.97277,-1.13952 6.68875,-1.70931 11.14796,-1.70935 6.88692,4e-5 11.19746,1.93235 12.93164,5.79694 0.99088,2.18008 1.48634,4.88036 1.48639,8.10085 -5e-5,5.10331 -1.23871,10.30569 -3.71599,15.60714 -2.42781,5.30149 -5.52447,9.01747 -9.28996,11.14796 -3.66647,2.03141 -7.55587,3.04711 -11.6682,3.04711 -6.04469,0 -10.65251,-1.78367 -13.82347,-5.35102 -2.2296,-2.47731 -3.69122,-4.58304 -4.38486,-6.31717 -0.64411,-1.78367 -0.96616,-4.23621 -0.96616,-7.35766 0,-6.19328 2.55164,-11.49475 7.65493,-15.90442 m 13.45187,28.76174 c 4.06279,0 7.80354,-2.57641 11.22228,-7.72926 3.46822,-5.20236 5.20234,-11.09839 5.20238,-17.68809 -4e-5,-0.69362 -0.0744,-1.23863 -0.22296,-1.63504 -0.0991,-0.39634 -0.223,-0.66884 -0.37159,-0.81751 -0.14868,-0.19816 -0.42119,-0.44589 -0.81752,-0.7432 -1.78371,-1.28818 -3.66648,-1.93228 -5.6483,-1.93231 -0.29731,3e-5 -0.71846,0.0496 -1.26344,0.14864 -0.49549,0.0496 -1.26346,0.14867 -2.30391,0.29727 -0.99096,0.0991 -2.08098,0.19822 -3.27007,0.29728 -1.63506,0.14868 -2.97281,0.47073 -4.01326,0.96616 -0.99095,0.44595 -2.27916,1.33779 -3.86463,2.67551 -2.9728,2.5269 -5.1033,4.85558 -6.39149,6.98606 -1.23868,2.08097 -1.85801,4.36011 -1.858,6.83741 -10e-6,3.61691 1.26342,6.58969 3.79031,8.91837 2.52685,2.27914 5.79692,3.41871 9.8102,3.41871"
         style="line-height:125%;font-family:Purisa;-inkscape-font-specification:Purisa Bold"
         id="path3017"
         inkscape:connector-curvature="0" />
    </g>
    <flowRoot
       xml:space="preserve"
       id="flowRoot3035"
       style="font-size:40px;font-style:normal;font-weight:normal;line-height:125%;letter-spacing:0px;word-spacing:0px;fill:#000000;fill-opacity:1;stroke:none;font-family:Sans"><flowRegion
         id="flowRegion3037"><rect
           id="rect3039"
           width="52.142857"
           height="64.285713"
           x="614.28571"
           y="101.6479" /></flowRegion><flowPara
         id="flowPara3041" /></flowRoot>  </g>
</svg>
