<?xml version="1.0" encoding="UTF-8" standalone="no"?>
<!-- Created with Inkscape (http://www.inkscape.org/) -->

<svg
   xmlns:dc="http://purl.org/dc/elements/1.1/"
   xmlns:cc="http://creativecommons.org/ns#"
   xmlns:rdf="http://www.w3.org/1999/02/22-rdf-syntax-ns#"
   xmlns:svg="http://www.w3.org/2000/svg"
   xmlns="http://www.w3.org/2000/svg"
   xmlns:sodipodi="http://sodipodi.sourceforge.net/DTD/sodipodi-0.dtd"
   xmlns:inkscape="http://www.inkscape.org/namespaces/inkscape"
   id="svg2"
   version="1.1"
   inkscape:version="0.48.4 r9939"
   width="266"
   height="264"
   sodipodi:docname="parapente.svg">
  <metadata
     id="metadata8">
    <rdf:RDF>
      <cc:Work
         rdf:about="">
        <dc:format>image/svg+xml</dc:format>
        <dc:type
           rdf:resource="http://purl.org/dc/dcmitype/StillImage" />
        <dc:title />
      </cc:Work>
    </rdf:RDF>
  </metadata>
  <defs
     id="defs6" />
  <sodipodi:namedview
     pagecolor="#ffffff"
     bordercolor="#666666"
     borderopacity="1"
     objecttolerance="10"
     gridtolerance="10"
     guidetolerance="10"
     inkscape:pageopacity="0"
     inkscape:pageshadow="2"
     inkscape:window-width="1551"
     inkscape:window-height="876"
     id="namedview4"
     showgrid="false"
     inkscape:zoom="1.7878788"
     inkscape:cx="3.9590462"
     inkscape:cy="115.58642"
     inkscape:window-x="49"
     inkscape:window-y="24"
     inkscape:window-maximized="1"
     inkscape:current-layer="svg2" />
  <path
     style="fill:#000000;fill-opacity:0.58823529;stroke:none"
     d="m 12.505831,252.10206 -0.3955,9.492 42.31854,-1.582 27.28953,-9.09651 35.990539,11.07402 35.99053,-10.28302 78.70458,-1.582 19.77502,2.76851 7.91001,-35.19954 -7.91001,-33.61753 -1.582,-35.19954 14.63352,-34.01303 -9.09651,-35.199538 7.51451,-37.968039 -2.37301,-30.849031 -15.02901,0.791001 -14.23802,225.435227 z"
     id="path3794"
     inkscape:connector-curvature="0" />
  <path
     style="fill:#658e16;fill-opacity:0.98039216;stroke:none;stroke-width:0.10000000000000001;stroke-linecap:butt;stroke-linejoin:miter;stroke-miterlimit:4;stroke-opacity:1;stroke-dasharray:none"
     d="m 166.54661,4.3559326 -48.65625,11.0625004 -37.562504,-0.40625 -30.0625,-5.5312504 -34.40625,5.5312504 -10.2812506,32.0625 0.375,21.343747 2.3750004,44.6875 4.7500002,36 -8.6875006,32.8125 1.96875,34.03125 0,28.875 0.4062504,12.65625 42.6875002,-0.40625 30.0625,-9.5 34.406254,10.28125 34.40625,-8.6875 81.875,-1.59375 17.8125,1.1875 6.71875,-30.4375 -7.90625,-35.21875 -0.8125,-34.78125 13.84375,-35.21875 -7.90625,-32.03125 6.34375,-37.187497 -1.96875,-37.9687504 -31.65625,3.5625 -12.25,0 -22.9375,-4.75 -22.9375,-0.375 z M 137.01536,40.105933 c 24.41924,0.164183 45.01599,2.889346 51.28125,6.5625 C 88.828256,51.216687 78.523376,63.06517 63.296606,76.51218 c -1.1865,5.73476 31.843755,75.5625 31.843755,75.5625 l -3.15625,1.375 C 82.688086,143.27517 68.608486,126.80966 54.827856,112.88718 41.047236,98.9647 27.563896,87.58433 28.109106,78.10593 29.796166,48.777107 90.396807,39.792492 137.01536,40.105933 z m 60.71875,9.96875 c 5.87288,0.699153 31.87182,12.560907 31.3125,28.781247 -0.55932,10.76695 -3.37553,12.0286 -8.96875,17.0625 -5.59322,5.0339 -59.5625,59.5625 -59.5625,59.5625 l -2.5,-1.375 c 0,0 34.39089,-69.63824 37.1875,-77.46875 -6.15254,-8.94915 -35.10275,-20.157306 -47.6875,-23.093747 10.34745,-0.13983 40.71027,-2.629767 50.21875,-3.46875 z m -0.15625,29.062497 c -1.95763,4.05509 -28.8125,60 -28.8125,60 0,0 33.43168,-43.77012 37.90625,-50.0625 -1.11864,-2.37712 -7.41578,-8.25953 -9.09375,-9.9375 z m -138.218754,0.9375 c -2.86737,2.66963 -5.93948,5.12197 -7.71875,8.71875 3.26288,6.22913 29.05575,43.09824 33.40625,48.4375 -2.66962,-6.22914 -21.93024,-49.24624 -25.6875,-57.15625 z m 148.718754,11.375 c -2.42655,4.47922 -31.46346,42.23464 -33.28125,45.03125 0.55932,0 37.31409,-36.07839 37.59375,-38.875 -0.97881,-2.65678 -2.35488,-4.75794 -4.3125,-6.15625 z m -158.406254,0.3125 c -1.87862,2.7685 -3.47437,4.15875 -3.96875,7.125 2.14041,2.08772 27.5035,29.441 31.65625,33.59375 -2.373,-4.746 -22.54599,-33.20424 -27.6875,-40.71875 z m 76.093754,58.6875 c 4.21144,0 7.625,3.41356 7.625,7.625 0,4.21144 -3.41356,7.625 -7.625,7.625 -4.21144,0 -7.625,-3.41356 -7.625,-7.625 0,-4.21144 3.41356,-7.625 7.625,-7.625 z m -28.875002,4.65625 c 1.45839,-0.0483 3.06621,0.68591 4.062502,2.46875 1.25848,2.93644 4.0625,6.4375 4.0625,6.4375 l 12.4375,-0.125 c 1.25847,1.8178 3.92849,4.73358 7.84375,4.59375 5.20063,-0.0409 6.69544,-2.36653 8.09375,-3.625 l 14.96875,0 4.0625,-6.28125 c 2.37712,-5.31355 9.51218,-1.54714 6.15625,3.90625 l -6.4375,9.65625 -17.34375,1.25 -0.84375,13.71875 c 0,0 10.90625,7.24947 10.90625,9.90625 l -0.125,18.59375 c 0.14831,5.8249 -8.01483,5.82999 -7.875,0.65625 l 0,-9.90625 -2.125,0.0312 0,11.59375 c -0.11585,6.34181 -7.96997,5.81707 -7.9375,0.125 l 0,-14.96875 c -0.0734,-1.9082 -8.85328,-5.17055 -10.53125,-7.6875 -1.95763,-0.83898 -0.90625,-21.5 -0.90625,-21.5 l -1.96875,-1.40625 -11.59375,-0.125 -7.124999,-11.34375 c -2.184852,-3.58316 -0.211898,-5.88818 2.218747,-5.96875 z m 37.906252,44.15625 0,5.03125 1.125,0 0,-5.03125 -1.125,0 z"
     id="path2987"
     inkscape:connector-curvature="0" />
  <path
     inkscape:connector-curvature="0"
     id="path3797"
     d="m -735.30773,-33.152176 -0.3955,9.492 42.31854,-1.582 27.28953,-9.09651 35.99054,11.07402 35.99053,-10.28302 78.70458,-1.582 19.77502,2.76851 7.91001,-35.19954 -7.91001,-33.617534 -1.582,-35.19954 14.63352,-34.01303 -9.09651,-35.19954 7.51451,-37.96803 -2.37301,-30.84904 -15.02901,0.79101 -14.23802,225.435224 z"
     style="fill:#000000;fill-opacity:0.58823529;stroke:none" />
  <path
     sodipodi:nodetypes="cccccsc"
     inkscape:connector-curvature="0"
     id="path3801"
     d="m -705.05195,-154.17531 3.16401,-1.38425 c 0,0 -33.02429,-69.80582 -31.83779,-75.54057 15.22677,-13.44701 25.50978,-25.31203 124.97813,-29.86028 -18.22621,-10.68554 -157.60691,-13.24927 -160.17766,31.44228 -0.54522,9.4784 12.95035,20.85385 26.73098,34.77633 13.78063,13.92248 27.84631,30.39198 37.14233,40.56649 z"
     style="fill:none;stroke:#f60000;stroke-width:0.1;stroke-linecap:butt;stroke-linejoin:miter;stroke-miterlimit:4;stroke-opacity:1;stroke-dasharray:none" />
  <path
     sodipodi:nodetypes="cccc"
     inkscape:connector-curvature="0"
     id="path3803"
     d="m -737.68073,-227.54063 c -2.86738,2.66963 -5.93299,5.10423 -7.71226,8.70101 3.26288,6.22913 29.06928,43.10954 33.41979,48.4488 -2.66963,-6.22914 -21.95028,-49.2398 -25.70753,-57.14981 z"
     style="fill:none;stroke:#f70000;stroke-width:0.1;stroke-linecap:butt;stroke-linejoin:miter;stroke-miterlimit:4;stroke-opacity:1;stroke-dasharray:none" />
  <path
     sodipodi:nodetypes="cccc"
     inkscape:connector-curvature="0"
     id="path3805"
     d="m -747.37049,-215.87337 c -1.87863,2.76851 -3.46063,4.15276 -3.955,7.11901 2.1404,2.08772 27.48727,29.46478 31.64003,33.61753 -2.373,-4.746 -22.54352,-33.22203 -27.68503,-40.73654 z"
     style="fill:none;stroke:#f70000;stroke-width:0.1;stroke-linecap:butt;stroke-linejoin:miter;stroke-miterlimit:4;stroke-opacity:1;stroke-dasharray:none" />
  <path
     sodipodi:nodetypes="cccccccc"
     inkscape:connector-curvature="0"
     id="path3807"
     d="m -649.51271,-254.07203 c 10.34745,-0.13983 40.69067,-2.65678 50.19915,-3.49577 5.87288,0.69916 31.88135,12.58475 31.32203,28.80509 -0.55932,10.76695 -3.35593,12.02542 -8.94915,17.05932 -5.59322,5.0339 -59.5678,59.56779 -59.5678,59.56779 l -2.51695,-1.3983 c 0,0 34.39831,-69.63559 37.19492,-77.4661 -6.15254,-8.94915 -35.09745,-20.13559 -47.6822,-23.07203 z"
     style="fill:none;stroke:#f70000;stroke-width:0.1;stroke-linecap:butt;stroke-linejoin:miter;stroke-miterlimit:4;stroke-opacity:1;stroke-dasharray:none" />
  <path
     sodipodi:nodetypes="cccc"
     inkscape:connector-curvature="0"
     id="path3809"
     d="m -628.25848,-168.49577 c 0,0 33.4195,-43.76694 37.89407,-50.05932 -1.11864,-2.37711 -7.41101,-8.24999 -9.08898,-9.92796 -1.95763,4.05508 -28.80509,59.98728 -28.80509,59.98728 z"
     style="fill:none;stroke:#fa0000;stroke-width:0.1;stroke-linecap:butt;stroke-linejoin:miter;stroke-miterlimit:4;stroke-opacity:1;stroke-dasharray:none" />
  <path
     sodipodi:nodetypes="cccc"
     inkscape:connector-curvature="0"
     id="path3811"
     d="m -622.24576,-171.15255 c 0.55932,0 37.33474,-36.07626 37.6144,-38.87287 -0.97881,-2.65678 -2.37712,-4.75424 -4.33474,-6.15255 -2.42655,4.47922 -31.46187,42.22881 -33.27966,45.02542 z"
     style="fill:none;stroke:#fa0000;stroke-width:0.1;stroke-linecap:butt;stroke-linejoin:miter;stroke-miterlimit:4;stroke-opacity:1;stroke-dasharray:none" />
  <path
     transform="matrix(0.92430228,0,0,0.92430228,-782.40762,-293.52839)"
     d="m 128.50423,155.77118 a 8.25,8.25 0 1 1 -16.5,0 8.25,8.25 0 1 1 16.5,0 z"
     sodipodi:ry="8.25"
     sodipodi:rx="8.25"
     sodipodi:cy="155.77118"
     sodipodi:cx="120.25423"
     id="path3813"
     style="fill:none;stroke:#fa0000;stroke-width:0.10818971;stroke-linecap:round;stroke-linejoin:round;stroke-miterlimit:4;stroke-opacity:1;stroke-dasharray:none"
     sodipodi:type="arc" />
  <path
     sodipodi:nodetypes="ccccccccccccccccccccccccc"
     inkscape:connector-curvature="0"
     id="path3815"
     d="m -702.36864,-146.54238 c -3.49577,-5.73305 3.63559,-8.25 6.29237,-3.49576 1.25847,2.93644 4.05508,6.4322 4.05508,6.4322 l 12.44492,-0.13983 c 1.25847,1.8178 3.91525,4.75424 7.83051,4.61441 5.20063,-0.0409 6.71186,-2.37712 8.11017,-3.63559 l 14.96186,0 4.05508,-6.29238 c 2.37712,-5.31355 9.50848,-1.53813 6.15255,3.91526 l -6.43221,9.6483 -17.33898,1.25848 -0.83898,13.70339 c 0,0 10.90678,7.27118 10.90678,9.92796 l -0.13983,18.597464 c 0.14831,5.8249 -7.99931,5.82345 -7.85948,0.64971 l 0,-9.927964 -2.1384,0.0494 0,11.605934 c -0.11585,6.34181 -7.96537,5.79097 -7.9329,0.0989 l 0,-14.961864 c -0.0734,-1.9082 -8.84179,-5.17373 -10.51976,-7.69068 -1.95763,-0.83898 -0.91387,-21.49295 -0.91387,-21.49295 l -1.95763,-1.3983 -11.60593,-0.13982 z"
     style="fill:none;stroke:#f70000;stroke-width:0.1;stroke-linecap:butt;stroke-linejoin:miter;stroke-miterlimit:4;stroke-opacity:1;stroke-dasharray:none" />
  <path
     sodipodi:nodetypes="ccccc"
     inkscape:connector-curvature="0"
     id="path3817"
     d="m -662.23729,-108.36865 1.11864,0 0,5.0339 -1.11864,0 z"
     style="fill:none;stroke:#fb0000;stroke-width:0.1;stroke-linecap:butt;stroke-linejoin:miter;stroke-miterlimit:4;stroke-opacity:1;stroke-dasharray:none" />
  <path
     inkscape:connector-curvature="0"
     id="path3819"
     d="m -781.18577,-292.60044 -10.28301,32.03553 0.3955,21.35702 2.373,44.69154 4.746,35.99054 -8.70101,32.82653 1.97751,34.013044 0,28.87153 0.3955,12.65601 42.71404,-0.3955 30.05803,-9.49201 34.40853,10.28301 34.40854,-8.70101 81.86858,-1.582 17.79752,1.1865 6.72351,-30.45353 -7.91001,-35.199544 -0.791,-34.80403 13.84251,-35.19954 -7.91001,-32.03553 6.32801,-37.17703 -1.9775,-37.96804 -31.64003,3.5595 -12.26052,0 -22.93902,-4.746 -22.93902,-0.3955 -48.64655,11.07401 -37.57254,-0.3955 -30.05803,-5.53701 z"
     style="fill:none;stroke:#000000;stroke-width:1px;stroke-linecap:butt;stroke-linejoin:miter;stroke-opacity:1" />
  <path
     style="fill:#f9f9f9;fill-opacity:1;stroke:#000000;stroke-width:0.55932206;stroke-opacity:1"
     d="M 80.418368,140.09139 C 74.265825,133.15684 62.081015,120.14886 53.341012,111.18479 35.013632,92.387531 32.791466,89.844386 30.336229,84.857091 22.942313,69.837915 39.620125,54.437378 71.469215,46.874286 c 25.018273,-5.941003 61.287535,-7.952373 91.728815,-5.086968 9.20906,0.866839 18.63702,2.524727 21.73343,3.821784 1.64967,0.69103 1.37867,0.760122 -4.39445,1.120354 -35.95085,2.243269 -54.35339,4.20524 -71.33905,7.605752 -20.352511,4.074552 -31.267643,8.984112 -43.456638,19.546529 -2.563957,2.221807 -2.835035,2.668817 -2.543895,4.194915 1.200035,6.290329 11.360428,30.402648 27.220321,64.598388 4.284026,9.23684 4.466198,10.14089 2.026043,10.05438 -0.46144,-0.0163 -5.872881,-5.70347 -12.025423,-12.63803 z M 72.446137,108.40715 C 65.448661,92.820691 59.435945,80.067298 59.084546,80.06628 c -0.863345,-0.0025 -6.735588,6.391884 -7.192767,7.832329 -0.443909,1.398633 0.537796,3.126501 8.475146,14.916821 11.63154,17.27777 24.112137,34.6205 24.57869,34.15395 0.122766,-0.12276 -5.502001,-12.97576 -12.499478,-28.56223 l 0,0 z m 2.121617,19.06999 C 68.903309,118.5684 50.209355,91.837615 49.634003,91.823969 c -0.662758,-0.01572 -4.173262,5.549395 -4.173262,6.61577 0,0.797023 31.411602,34.297831 31.797289,33.912141 0.137593,-0.13759 -1.073031,-2.33122 -2.690276,-4.87474 z"
     id="path3130"
     inkscape:connector-curvature="0" />
  <path
     style="fill:#f9f9f9;fill-opacity:1;stroke:#000000;stroke-width:0.55932206;stroke-opacity:1"
     d="m 159.18015,154.40756 c -0.45379,-0.45379 1.62901,-5.21647 7.76913,-17.76547 21.99474,-44.952164 28.56345,-59.127572 28.09008,-60.619014 -0.40552,-1.277671 -6.96695,-6.168037 -12.05649,-8.985944 -5.51104,-3.051273 -16.84267,-7.873766 -25.09963,-10.681846 l -7.29563,-2.481146 4.06792,-0.315929 c 2.23736,-0.173761 6.20733,-0.44593 8.82216,-0.604821 2.61483,-0.158891 11.49687,-0.823978 19.73786,-1.477971 l 14.98362,-1.189079 3.47401,1.258454 c 10.40126,3.767845 21.94609,12.812337 25.3366,19.84929 1.37657,2.857032 1.60718,3.987196 1.55355,7.6133 -0.12696,8.584122 1.98344,5.997579 -34.93652,42.818816 -18.14778,18.09924 -33.18287,32.97379 -33.41131,33.05454 -0.22845,0.0808 -0.69435,-0.13218 -1.03535,-0.47318 z m 21.22421,-30.01686 c 6.26784,-8.22903 14.85257,-19.56558 19.07717,-25.192338 l 7.68109,-10.230473 -1.6629,-2.074612 c -2.21571,-2.764275 -7.81416,-8.225485 -8.11362,-7.914721 -0.22473,0.233213 -28.10777,58.187744 -28.71072,59.674854 -0.80768,1.99205 1.30396,-0.57575 11.72898,-14.26271 z m 12.24576,-5.0339 c 9.38427,-9.45953 17.75237,-18.24597 18.59577,-19.525407 1.50452,-2.282338 1.51563,-2.361532 0.58839,-4.194915 -1.00178,-1.980781 -2.99078,-4.385609 -3.62728,-4.385609 -0.20944,0 -1.47591,1.573093 -2.81441,3.495762 -1.33848,1.92267 -8.62333,11.806499 -16.18855,21.964069 -7.56521,10.15757 -13.94641,18.77812 -14.18043,19.15678 -1.57024,2.54071 2.62645,-1.39031 17.62651,-16.51068 z"
     id="path3132"
     inkscape:connector-curvature="0" />
  <path
     style="fill:#f9f9f9;fill-opacity:1;stroke:#000000;stroke-width:0.55932206;stroke-opacity:1"
     d="m 123.54379,164.80149 c -2.71331,-0.95038 -3.57943,-1.80229 -4.47202,-4.39867 -0.99642,-2.89839 -0.48342,-5.20838 1.62489,-7.31669 3.1091,-3.1091 7.80274,-2.99665 10.53668,0.25245 2.77813,3.30162 2.36466,7.81782 -0.9409,10.27723 -2.39824,1.78434 -4.1572,2.09338 -6.74865,1.18568 l 0,0 z"
     id="path3134"
     inkscape:connector-curvature="0" />
  <path
     style="fill:#ffffff;fill-opacity:1;stroke:#000000;stroke-width:0.55932205999999995;stroke-opacity:1"
     d="m 128.37476,220.99769 c -0.80541,-0.93879 -1.02159,-2.65167 -1.253,-9.92797 l -0.27966,-8.79343 -3.6356,-2.31347 c -1.99957,-1.27241 -4.51652,-3.07818 -5.59322,-4.01282 l -1.95762,-1.69935 -0.1932,-10.24989 c -0.11088,-5.88237 -0.43798,-10.5478 -0.76764,-10.94904 -0.3944,-0.48003 -2.45141,-0.69916 -6.56306,-0.69916 l -5.98862,0 -4.010692,-6.35703 c -2.20588,-3.49637 -4.010691,-6.96976 -4.010691,-7.71864 0,-1.69484 0.964021,-2.70399 2.583068,-2.70399 2.048385,0 2.926911,0.5679 4.195825,2.71228 0.66457,1.12308 1.84615,2.99971 2.62573,4.1703 l 1.41743,2.12833 5.80764,-0.38902 5.80763,-0.38903 1.78558,1.68933 c 2.59851,2.45847 4.08062,3.06056 7.43521,3.02049 3.04606,-0.0364 5.59543,-0.98101 6.9045,-2.55834 0.59408,-0.71582 2.11968,-0.87718 8.34909,-0.88309 l 7.6222,-0.007 2.72456,-4.18769 c 2.55118,-3.92118 3.26574,-4.48046 5.3856,-4.21528 1.14933,0.14377 2.23729,1.66772 2.23729,3.13385 0,0.66797 -1.56532,3.61989 -3.47848,6.55983 -3.98481,6.1234 -2.95307,5.67254 -14.47997,6.32756 l -6.49234,0.36893 -0.35646,5.38227 c -0.6175,9.32395 -0.89394,8.45554 3.84778,12.08741 6.73098,5.15551 6.4171,4.35687 6.4171,16.32791 0,10.18733 -0.0147,10.31214 -1.37288,11.67033 -1.6645,1.6645 -3.2833,1.75061 -4.77966,0.25424 -0.9766,-0.97659 -1.11865,-1.8644 -1.11865,-6.99152 l 0,-5.87289 -1.3983,0 -1.39831,0 0,6.88606 c 0,6.15679 -0.12077,7.0157 -1.14043,8.11017 -1.4286,1.53343 -3.60476,1.57339 -4.87775,0.0896 z m 7.69615,-19.00106 c 0,-2.11299 -0.20509,-2.79661 -0.83898,-2.79661 -0.6339,0 -0.83899,0.68362 -0.83899,2.79661 0,2.11299 0.20509,2.79661 0.83899,2.79661 0.63389,0 0.83898,-0.68362 0.83898,-2.79661 z"
     id="path3136"
     inkscape:connector-curvature="0" />
  <path
     style="fill:#ffffff;fill-opacity:1;stroke:#000000;stroke-width:0.55932205999999995;stroke-opacity:1"
     d="M 83.103684,142.01452 C 71.443345,129.35497 60.464086,117.69657 46.885467,103.55595 34.944972,91.121259 32.05257,87.526709 30.342408,82.996967 26.115366,71.800714 35.399991,60.612161 55.699451,52.440145 75.73337,44.37503 113.43395,39.852208 147.49938,41.427192 c 13.03242,0.602542 31.18917,2.645016 34.51941,3.883128 1.58837,0.590521 -0.88203,0.894453 -14.34619,1.764995 -38.62862,2.497586 -64.60808,6.649457 -80.509105,12.866449 -6.620445,2.588465 -14.191708,7.129133 -20.018737,12.005718 -5.684792,4.757547 -5.68318,4.884524 0.251949,19.848957 3.746129,9.445231 8.56941,20.538301 17.759141,40.844261 8.261477,18.25484 8.795646,19.57627 7.913495,19.57627 -0.312661,0 -4.79721,-4.59111 -9.965659,-10.20245 z m 2.068921,-5.4409 c 0,-0.2979 -2.611916,-6.52735 -5.804258,-13.84322 C 68.10469,96.917573 59.886818,79.505106 58.968027,79.505106 c -0.256061,0 -2.015631,1.614232 -3.910155,3.587182 -5.090425,5.301149 -5.156354,5.019541 4.55778,19.468002 9.083223,13.51007 18.109006,26.40616 21.878964,31.26079 2.384435,3.07047 3.677989,4.03854 3.677989,2.75254 z m -7.271186,-4.30327 c 0,-1.5303 -25.262578,-38.448532 -27.686031,-40.459819 -0.797438,-0.661815 -1.088967,-0.547621 -2.241254,0.877918 -0.728519,0.90128 -1.753493,2.576684 -2.277719,3.723122 l -0.953141,2.084431 2.735852,3.223278 c 1.504719,1.7728 4.50258,5.11362 6.661915,7.42404 19.474217,20.8368 23.760378,25.00871 23.760378,23.12703 z"
     id="path3157"
     inkscape:connector-curvature="0" />
  <path
     style="fill:#ffffff;fill-opacity:1;stroke:#000000;stroke-width:0.55932205999999995;stroke-opacity:1"
     d="m 160.12618,153.37338 c -0.005,-0.96014 2.90717,-7.18896 18.34897,-39.24254 13.41299,-27.842228 16.88389,-35.578574 16.88389,-37.632702 0,-1.096821 -0.78544,-2.076942 -3.2161,-4.013205 -6.67084,-5.314007 -14.3417,-9.17871 -29.86048,-15.044191 -6.04679,-2.285445 -7.66077,-3.090887 -6.6172,-3.302255 0.75913,-0.153753 10.7322,-0.9544 22.16239,-1.779214 l 20.78215,-1.499662 5.0427,2.225259 c 6.6204,2.921476 12.30827,6.751291 17.27599,11.632449 5.43528,5.340583 6.85845,8.412152 6.86577,14.818113 0.005,4.388258 -0.13822,5.013695 -1.72925,7.550847 -2.03062,3.238164 -65.93226,67.477311 -65.93883,66.287101 z m 13.03432,-18.63522 c 6.56801,-8.26693 33.94271,-44.510291 34.27731,-45.382224 0.55685,-1.451138 -9.4078,-11.6441 -10.39005,-10.628099 -0.67375,0.696911 -29.09549,59.900723 -29.09549,60.607283 0,1.43451 1.39334,0.2047 5.20823,-4.59696 z m 20.374,-15.71343 c 9.85916,-9.94981 18.31147,-18.83647 18.78292,-19.748149 0.78282,-1.513796 0.76956,-1.848902 -0.15281,-3.86284 -1.05653,-2.30689 -3.06687,-4.722195 -3.93043,-4.722195 -0.54955,0 -3.68163,4.123025 -22.02602,28.994724 -6.65684,9.02549 -12.10335,16.63926 -12.10335,16.91949 0,1.68197 3.30953,-1.31268 19.42969,-17.58103 l 0,0 z"
     id="path3159"
     inkscape:connector-curvature="0" />
  <path
     style="fill:#ffffff;fill-opacity:1;stroke:#000000;stroke-width:0.55932205999999995;stroke-opacity:1"
     d="m 122.51438,163.6465 c -2.90466,-1.57605 -4.00693,-5.4948 -2.41274,-8.57764 2.64574,-5.11629 10.19389,-4.29321 12.04423,1.31336 1.72489,5.22649 -4.59805,9.99539 -9.63149,7.26428 z"
     id="path3161"
     inkscape:connector-curvature="0" />
</svg>
